<?xml version="1.0" encoding="iso-8859-1"?>
<!-- Generator: Adobe Illustrator 18.0.0, SVG Export Plug-In . SVG Version: 6.00 Build 0)  -->
<!DOCTYPE svg PUBLIC "-//W3C//DTD SVG 1.1//EN" "http://www.w3.org/Graphics/SVG/1.1/DTD/svg11.dtd">
<svg version="1.1" id="Capa_1" xmlns="http://www.w3.org/2000/svg" xmlns:xlink="http://www.w3.org/1999/xlink" x="0px" y="0px"
	 viewBox="0 0 397 397" style="enable-background:new 0 0 397 397;" xml:space="preserve">
<g>
	<path d="M369.499,36h-27.398V7.5c0-4.142-3.357-7.5-7.5-7.5s-7.5,3.358-7.5,7.5V36h-39.44V7.5c0-4.142-3.357-7.5-7.5-7.5
		s-7.5,3.358-7.5,7.5V36h-39.44V7.5c0-4.142-3.357-7.5-7.5-7.5s-7.5,3.358-7.5,7.5V36h-39.44V7.5c0-4.142-3.357-7.5-7.5-7.5
		s-7.5,3.358-7.5,7.5V36h-39.44V7.5c0-4.142-3.357-7.5-7.5-7.5s-7.5,3.358-7.5,7.5V36h-39.44V7.5c0-4.142-3.357-7.5-7.5-7.5
		s-7.5,3.358-7.5,7.5V36H27.501c-4.143,0-7.5,3.358-7.5,7.5v319.953c0,4.142,3.357,7.5,7.5,7.5h341.998c4.143,0,7.5-3.358,7.5-7.5
		V43.5C376.999,39.358,373.642,36,369.499,36z M54.898,51v20.5c0,4.142,3.357,7.5,7.5,7.5s7.5-3.358,7.5-7.5V51h39.44v20.5
		c0,4.142,3.357,7.5,7.5,7.5s7.5-3.358,7.5-7.5V51h39.44v20.5c0,4.142,3.357,7.5,7.5,7.5s7.5-3.358,7.5-7.5V51h39.44v20.5
		c0,4.142,3.357,7.5,7.5,7.5s7.5-3.358,7.5-7.5V51h39.44v20.5c0,4.142,3.357,7.5,7.5,7.5s7.5-3.358,7.5-7.5V51h39.44v20.5
		c0,4.142,3.357,7.5,7.5,7.5s7.5-3.358,7.5-7.5V51h19.898v69H35.001V51H54.898z M35.001,355.953V135h326.998v220.953H35.001z"/>
	<path d="M345.07,382H51.93c-4.143,0-7.5,3.358-7.5,7.5s3.357,7.5,7.5,7.5H345.07c4.143,0,7.5-3.358,7.5-7.5S349.213,382,345.07,382
		z"/>
	<path d="M126.122,162.311c-2.93-2.929-7.678-2.929-10.607,0l-4.242,4.242l-4.242-4.242c-2.93-2.929-7.678-2.929-10.607,0
		c-2.929,2.929-2.929,7.677,0,10.606l4.242,4.242l-4.242,4.242c-2.929,2.929-2.929,7.678,0,10.606
		c1.465,1.464,3.385,2.197,5.304,2.197s3.839-0.732,5.304-2.197l4.242-4.242l4.242,4.242c1.465,1.465,3.384,2.197,5.304,2.197
		c1.919,0,3.839-0.732,5.304-2.197c2.929-2.929,2.929-7.678,0-10.606l-4.242-4.242l4.242-4.242
		C129.051,169.988,129.051,165.24,126.122,162.311z"/>
	<path d="M82.508,162.311c-2.93-2.929-7.678-2.929-10.607,0l-4.242,4.242l-4.242-4.242c-2.929-2.929-7.677-2.929-10.607,0
		c-2.929,2.929-2.929,7.677,0,10.606l4.242,4.242l-4.242,4.242c-2.929,2.929-2.929,7.678,0,10.606
		c1.465,1.464,3.385,2.197,5.304,2.197s3.839-0.732,5.304-2.197l4.242-4.242l4.242,4.242c1.465,1.465,3.384,2.197,5.304,2.197
		c1.919,0,3.839-0.732,5.304-2.197c2.929-2.929,2.929-7.678,0-10.606l-4.242-4.242l4.242-4.242
		C85.437,169.988,85.437,165.24,82.508,162.311z"/>
	<path d="M169.735,162.311c-2.93-2.929-7.678-2.929-10.607,0l-4.242,4.242l-4.242-4.242c-2.929-2.929-7.677-2.929-10.607,0
		c-2.929,2.929-2.929,7.677,0,10.606l4.242,4.242l-4.242,4.242c-2.929,2.929-2.929,7.678,0,10.606
		c1.465,1.464,3.385,2.197,5.304,2.197s3.839-0.732,5.304-2.197l4.242-4.242l4.242,4.242c1.465,1.465,3.384,2.197,5.304,2.197
		c1.919,0,3.839-0.732,5.304-2.197c2.929-2.929,2.929-7.678,0-10.606l-4.242-4.242l4.242-4.242
		C172.664,169.988,172.664,165.24,169.735,162.311z"/>
	<path d="M300.576,162.311c-2.93-2.929-7.678-2.929-10.607,0l-4.242,4.242l-4.242-4.242c-2.929-2.929-7.677-2.929-10.607,0
		c-2.929,2.929-2.929,7.677,0,10.606l4.242,4.242l-4.242,4.242c-2.929,2.929-2.929,7.678,0,10.606
		c1.465,1.464,3.385,2.197,5.304,2.197s3.839-0.732,5.304-2.197l4.242-4.242l4.242,4.242c1.465,1.465,3.384,2.197,5.304,2.197
		c1.919,0,3.839-0.732,5.304-2.197c2.929-2.929,2.929-7.678,0-10.606l-4.242-4.242l4.242-4.242
		C303.505,169.988,303.505,165.24,300.576,162.311z"/>
	<path d="M344.19,162.311c-2.929-2.929-7.677-2.929-10.607,0l-4.242,4.242l-4.242-4.242c-2.93-2.929-7.678-2.929-10.607,0
		c-2.929,2.929-2.929,7.678,0,10.606l4.243,4.242l-4.243,4.242c-2.929,2.929-2.929,7.678,0,10.606
		c1.465,1.465,3.384,2.197,5.304,2.197c1.919,0,3.839-0.732,5.304-2.197l4.242-4.242l4.242,4.242
		c1.465,1.464,3.385,2.197,5.304,2.197s3.839-0.732,5.304-2.197c2.929-2.929,2.929-7.678,0-10.606l-4.243-4.242l4.243-4.242
		C347.119,169.989,347.119,165.24,344.19,162.311z"/>
	<path d="M213.349,162.311c-2.93-2.929-7.678-2.929-10.607,0l-4.242,4.242l-4.242-4.242c-2.929-2.929-7.677-2.929-10.607,0
		c-2.929,2.929-2.929,7.677,0,10.606l4.242,4.242l-4.242,4.242c-2.929,2.929-2.929,7.678,0,10.606
		c1.465,1.464,3.385,2.197,5.304,2.197s3.839-0.732,5.304-2.197l4.242-4.242l4.242,4.242c1.465,1.465,3.384,2.197,5.304,2.197
		c1.919,0,3.839-0.732,5.304-2.197c2.929-2.929,2.929-7.678,0-10.606l-4.242-4.242l4.242-4.242
		C216.277,169.988,216.277,165.24,213.349,162.311z"/>
	<path d="M256.963,162.311c-2.93-2.929-7.678-2.929-10.607,0l-4.242,4.242l-4.242-4.242c-2.93-2.929-7.678-2.929-10.607,0
		c-2.929,2.929-2.929,7.677,0,10.606l4.242,4.242l-4.242,4.242c-2.929,2.929-2.929,7.678,0,10.606
		c1.465,1.464,3.385,2.197,5.304,2.197s3.839-0.732,5.304-2.197l4.242-4.242l4.242,4.242c1.465,1.465,3.384,2.197,5.304,2.197
		c1.919,0,3.839-0.732,5.304-2.197c2.929-2.929,2.929-7.678,0-10.606l-4.242-4.242l4.242-4.242
		C259.892,169.988,259.892,165.24,256.963,162.311z"/>
	<path d="M126.122,206.951c-2.93-2.929-7.678-2.929-10.607,0l-4.242,4.242l-4.242-4.242c-2.93-2.929-7.678-2.929-10.607,0
		c-2.929,2.929-2.929,7.678,0,10.606l4.242,4.242l-4.242,4.242c-2.929,2.929-2.929,7.678,0,10.606
		c1.465,1.464,3.385,2.197,5.304,2.197s3.839-0.732,5.304-2.197l4.242-4.242l4.242,4.242c1.465,1.464,3.385,2.197,5.304,2.197
		s3.839-0.732,5.304-2.197c2.929-2.929,2.929-7.678,0-10.606l-4.242-4.242l4.242-4.242
		C129.051,214.628,129.051,209.879,126.122,206.951z"/>
	<path d="M82.508,206.951c-2.93-2.929-7.678-2.929-10.607,0l-4.242,4.242l-4.242-4.242c-2.93-2.929-7.678-2.929-10.607,0
		c-2.929,2.929-2.929,7.678,0,10.606l4.242,4.242l-4.242,4.242c-2.929,2.929-2.929,7.678,0,10.606
		c1.465,1.464,3.385,2.197,5.304,2.197s3.839-0.732,5.304-2.197l4.242-4.242l4.242,4.242c1.465,1.464,3.385,2.197,5.304,2.197
		s3.839-0.732,5.304-2.197c2.929-2.929,2.929-7.678,0-10.606l-4.242-4.242l4.242-4.242
		C85.437,214.628,85.437,209.879,82.508,206.951z"/>
	<path d="M169.735,206.951c-2.93-2.929-7.678-2.929-10.607,0l-4.242,4.242l-4.242-4.242c-2.93-2.929-7.678-2.929-10.607,0
		c-2.929,2.929-2.929,7.678,0,10.606l4.242,4.242l-4.242,4.242c-2.929,2.929-2.929,7.678,0,10.606
		c1.465,1.464,3.385,2.197,5.304,2.197s3.839-0.732,5.304-2.197l4.242-4.242l4.242,4.242c1.465,1.464,3.385,2.197,5.304,2.197
		s3.839-0.732,5.304-2.197c2.929-2.929,2.929-7.678,0-10.606l-4.242-4.242l4.242-4.242
		C172.664,214.628,172.664,209.879,169.735,206.951z"/>
	<path d="M213.349,206.951c-2.93-2.929-7.678-2.929-10.607,0l-4.242,4.242l-4.242-4.242c-2.93-2.929-7.678-2.929-10.607,0
		c-2.929,2.929-2.929,7.678,0,10.606l4.242,4.242l-4.242,4.242c-2.929,2.929-2.929,7.678,0,10.606
		c1.465,1.464,3.385,2.197,5.304,2.197s3.839-0.732,5.304-2.197l4.242-4.242l4.242,4.242c1.465,1.464,3.385,2.197,5.304,2.197
		s3.839-0.732,5.304-2.197c2.929-2.929,2.929-7.678,0-10.606l-4.242-4.242l4.242-4.242
		C216.277,214.628,216.277,209.879,213.349,206.951z"/>
	<path d="M336.263,308.209c-1.141-2.858-4.107-4.719-7.162-4.623c-3.378,0.106-6.335,2.547-7.077,5.846
		c-0.672,2.989,0.601,6.18,3.149,7.877c2.909,1.938,7.008,1.606,9.47-0.93C336.78,314.307,337.417,310.935,336.263,308.209
		C336.083,307.759,336.453,308.659,336.263,308.209z"/>
	<path d="M71.822,304.839c-2.671-1.763-6.291-1.644-8.807,0.351c-2.388,1.893-3.415,5.144-2.532,8.065
		c0.913,3.019,3.72,5.184,6.867,5.317c3.111,0.131,6.033-1.757,7.232-4.624C75.96,310.658,74.745,306.832,71.822,304.839
		C71.413,304.569,72.232,305.119,71.822,304.839z"/>
	<path d="M292.652,308.209c-0.382-0.908-0.932-1.734-1.619-2.44c-2.732-2.652-7.093-2.914-10.063-0.488
		c-3.043,2.486-3.592,7.024-1.31,10.201c2.134,2.972,6.218,3.897,9.471,2.277C292.569,316.048,294.148,311.741,292.652,308.209
		C292.463,307.759,292.843,308.659,292.652,308.209z"/>
	<path d="M249.033,308.209c-1.937-4.828-8.577-6.184-12.221-2.43c-2.898,2.817-2.898,7.783,0,10.6c0.34,0.35,0.721,0.66,1.141,0.93
		c2.609,1.828,6.277,1.619,8.762-0.313C249.339,314.956,250.327,311.281,249.033,308.209
		C248.853,307.759,249.223,308.659,249.033,308.209z"/>
	<path d="M205.423,308.209c-1.171-2.768-3.902-4.63-6.925-4.63c-3.271,0-6.22,2.2-7.174,5.322
		c-1.997,6.534,5.486,12.161,11.215,8.496C205.548,315.472,206.815,311.514,205.423,308.209
		C205.232,307.759,205.612,308.659,205.423,308.209z"/>
	<path d="M159.053,304.839c-2.92-1.922-7.006-1.598-9.47,0.94c-2.896,2.807-2.896,7.793,0,10.6c3.221,3.319,8.928,2.71,11.494-1.074
		C163.397,311.883,162.453,307.159,159.053,304.839C158.643,304.569,159.463,305.119,159.053,304.839z"/>
	<path d="M118.192,308.209c-0.36-0.903-0.921-1.753-1.62-2.43c-4.527-4.663-12.633-1.264-12.795,5.116
		c-0.167,6.558,8.147,10.272,12.795,5.484C118.712,314.305,119.348,310.939,118.192,308.209
		C118.013,307.759,118.383,308.659,118.192,308.209z"/>
	<path d="M336.263,263.569c-2.437-6.107-11.351-5.973-13.85,0c-1.281,3.063-0.31,6.702,2.282,8.759
		c2.408,1.91,5.849,2.116,8.483,0.551C336.321,271.012,337.693,266.95,336.263,263.569
		C336.083,263.119,336.453,264.019,336.263,263.569z"/>
	<path d="M74.583,263.569c-2.578-6.094-11.508-6.037-13.917,0.171c-2.477,6.385,4.59,12.515,10.558,9.292
		C74.549,271.236,76.054,267.063,74.583,263.569C74.393,263.119,74.772,264.019,74.583,263.569z"/>
	<path d="M289.893,260.199c-5.677-3.738-13.225,1.674-11.388,8.241c0.847,3.027,3.532,5.235,6.668,5.476
		c3.267,0.251,6.365-1.734,7.547-4.778C293.985,265.878,292.761,262.159,289.893,260.199
		C289.482,259.929,290.303,260.479,289.893,260.199z"/>
	<path d="M249.033,263.569c-1.752-4.365-7.368-5.963-11.204-3.284c-3.727,2.604-4.323,8.24-1.017,11.454
		c2.488,2.563,6.676,2.887,9.582,0.854C249.239,270.604,250.386,266.785,249.033,263.569
		C248.853,263.119,249.223,264.019,249.033,263.569z"/>
	<path d="M205.423,263.569c-1.195-2.826-4.022-4.704-7.109-4.625c-3.329,0.085-6.285,2.44-7.089,5.676
		c-1.648,6.633,6.118,11.914,11.68,7.883C205.675,270.495,206.754,266.732,205.423,263.569
		C205.232,263.119,205.612,264.019,205.423,263.569z"/>
	<path d="M159.053,260.199c-2.922-1.923-7.004-1.597-9.47,0.94c-2.894,2.81-2.898,7.791,0,10.6c3.142,3.237,8.66,2.753,11.315-0.822
		C163.435,267.501,162.544,262.584,159.053,260.199C158.643,259.929,159.463,260.479,159.053,260.199z"/>
	<path d="M115.433,260.199c-5.22-3.529-12.39,0.963-11.599,7.159c0.765,5.994,8.429,8.821,12.739,4.381
		C119.955,268.46,119.226,262.791,115.433,260.199C115.033,259.929,115.843,260.479,115.433,260.199z"/>
	<path d="M333.503,215.559c-2.814-1.853-6.622-1.611-9.146,0.637c-2.249,2.003-3.107,5.29-2.077,8.131
		c1.125,3.106,4.223,5.164,7.529,4.956c2.958-0.186,5.589-2.165,6.588-4.956C337.552,221.097,336.321,217.481,333.503,215.559
		C333.093,215.289,333.913,215.839,333.503,215.559z"/>
	<path d="M292.652,218.929c-1.264-3.001-4.396-4.932-7.659-4.592c-3.065,0.319-5.658,2.491-6.489,5.462
		c-1.846,6.601,5.862,12.101,11.509,8.155C292.857,225.967,294.01,222.139,292.652,218.929
		C292.463,218.479,292.843,219.379,292.652,218.929z"/>
	<path d="M249.033,218.929c-1.937-4.823-8.577-6.183-12.221-2.43c-4.182,4.065-1.932,11.352,3.653,12.611
		C246.267,230.418,251.354,224.443,249.033,218.929C248.853,218.479,249.223,219.379,249.033,218.929z"/>
</g>
<g>
</g>
<g>
</g>
<g>
</g>
<g>
</g>
<g>
</g>
<g>
</g>
<g>
</g>
<g>
</g>
<g>
</g>
<g>
</g>
<g>
</g>
<g>
</g>
<g>
</g>
<g>
</g>
<g>
</g>
</svg>
