<svg id="Capa_1" enable-background="new 0 0 512 512" height="512" viewBox="0 0 512 512" width="512" xmlns="http://www.w3.org/2000/svg"><g><g><path d="m484.5 202.296h-28.5c-4.142 0-7.5 3.358-7.5 7.5s3.358 7.5 7.5 7.5h28.5c6.893 0 12.5 5.607 12.5 12.5v176.708c0 6.893-5.607 12.5-12.5 12.5h-13.5c-6.893 0-12.5 5.607-12.5 12.5v32.017l-55.457-41.079c-2.993-2.217-6.692-3.438-10.417-3.438h-151.014c-6.893 0-12.5-5.607-12.5-12.5v-176.708c0-6.893 5.607-12.5 12.5-12.5h178.388c4.142 0 7.5-3.358 7.5-7.5s-3.358-7.5-7.5-7.5h-122.112v-40.297c0-4.142-3.358-7.5-7.5-7.5s-7.5 3.358-7.5 7.5v40.297h-41.275c-15.164 0-27.5 12.336-27.5 27.5v17.917h-94.739c-3.724 0-7.424 1.221-10.417 3.438l-55.457 41.079v-32.017c0-6.893-5.607-12.5-12.5-12.5h-13.5c-6.893 0-12.5-5.607-12.5-12.5v-176.707c0-6.893 5.607-12.5 12.5-12.5h242.888c6.893 0 12.5 5.607 12.5 12.5v68.493c0 4.142 3.358 7.5 7.5 7.5s7.5-3.358 7.5-7.5v-68.493c0-15.164-12.336-27.5-27.5-27.5h-242.888c-15.164 0-27.5 12.336-27.5 27.5v176.708c0 15.164 12.336 27.5 27.5 27.5h11v34.48c0 4.75 2.635 9.027 6.876 11.164 1.791.902 3.718 1.347 5.634 1.347 2.623 0 5.225-.833 7.43-2.466l59.444-44.033c.434-.321.949-.491 1.489-.491h94.739v143.79c0 15.164 12.336 27.5 27.5 27.5h151.014c.54 0 1.055.17 1.488.491l59.445 44.033c2.205 1.633 4.807 2.466 7.43 2.466 1.916 0 3.843-.445 5.634-1.347 4.242-2.137 6.876-6.414 6.876-11.164v-34.48h11c15.164 0 27.5-12.336 27.5-27.5v-176.708c.001-15.163-12.335-27.5-27.499-27.5z"/><path d="m221.612 100.43h-145.337c-4.142 0-7.5 3.358-7.5 7.5s3.358 7.5 7.5 7.5h145.337c4.142 0 7.5-3.358 7.5-7.5s-3.358-7.5-7.5-7.5z"/><path d="m229.112 146.86c0-4.142-3.358-7.5-7.5-7.5h-81.612c-4.142 0-7.5 3.358-7.5 7.5s3.358 7.5 7.5 7.5h81.612c4.142 0 7.5-3.358 7.5-7.5z"/><path d="m76.275 154.36h27.725c4.142 0 7.5-3.358 7.5-7.5s-3.358-7.5-7.5-7.5h-27.725c-4.142 0-7.5 3.358-7.5 7.5s3.358 7.5 7.5 7.5z"/><path d="m76.275 193.289h66.209c4.142 0 7.5-3.358 7.5-7.5s-3.358-7.5-7.5-7.5h-66.209c-4.142 0-7.5 3.358-7.5 7.5s3.358 7.5 7.5 7.5z"/><path d="m272.03 291.185c-6.893 0-12.5 5.607-12.5 12.5v28.93c0 6.893 5.607 12.5 12.5 12.5h28.93c6.893 0 12.5-5.607 12.5-12.5v-28.93c0-6.893-5.607-12.5-12.5-12.5zm26.429 38.93h-23.93v-23.93h23.93z"/><path d="m348.591 291.185c-6.893 0-12.5 5.607-12.5 12.5v28.93c0 6.893 5.607 12.5 12.5 12.5h28.93c6.893 0 12.5-5.607 12.5-12.5v-28.93c0-6.893-5.607-12.5-12.5-12.5zm26.43 38.93h-23.93v-23.93h23.93z"/><path d="m412.653 303.685v28.93c0 6.893 5.607 12.5 12.5 12.5h28.929c6.893 0 12.5-5.607 12.5-12.5v-28.93c0-6.893-5.607-12.5-12.5-12.5h-28.929c-6.893 0-12.5 5.607-12.5 12.5zm15 2.5h23.929v23.93h-23.929z"/></g></g></svg>