<?xml version="1.0" encoding="iso-8859-1"?>
<!-- Generator: Adobe Illustrator 19.0.0, SVG Export Plug-In . SVG Version: 6.00 Build 0)  -->
<svg version="1.1" id="Capa_1" xmlns="http://www.w3.org/2000/svg" xmlns:xlink="http://www.w3.org/1999/xlink" x="0px" y="0px"
	 viewBox="0 0 512 512" style="enable-background:new 0 0 512 512;" xml:space="preserve">
<g>
	<g>
		<path d="M346,30h-15c0,33.091-26.909,60-60,60H121c-33.091,0-60-26.909-60-60H46C21.186,30,0,50.186,0,75v392
			c0,24.814,21.186,45,46,45h300c24.814,0,46-20.186,46-45V75C392,50.186,370.814,30,346,30z M65.394,184.395L84.789,165
			l-19.394-19.395c-5.859-5.859-5.859-15.352,0-21.211s15.352-5.859,21.211,0L106,143.789l19.395-19.395
			c5.859-5.859,15.352-5.859,21.211,0s5.859,15.352,0,21.211L127.211,165l19.395,19.395c5.859,5.859,5.859,15.352,0,21.211
			c-5.859,5.859-15.352,5.859-21.211,0L106,186.211l-19.395,19.395c-5.859,5.859-15.352,5.859-21.211,0
			C59.535,199.747,59.535,190.254,65.394,184.395z M176.606,387.605l-60,60c-2.93,2.93-6.768,4.395-10.605,4.395
			c-3.837,0-7.676-1.465-10.605-4.395l-30-30c-5.861-5.859-5.861-15.351-0.001-21.21c5.859-5.859,15.352-5.859,21.211,0L106,415.789
			l49.395-49.395c5.859-5.859,15.352-5.859,21.211,0S182.465,381.746,176.606,387.605z M176.606,266.605l-60,60
			c-2.93,2.93-6.768,4.395-10.605,4.395c-3.837,0-7.676-1.465-10.605-4.395l-30-30c-5.861-5.859-5.861-15.351-0.001-21.21
			c5.859-5.859,15.352-5.859,21.211,0L106,294.789l49.395-49.395c5.859-5.859,15.352-5.859,21.211,0
			S182.465,260.746,176.606,266.605z M316,452h-90c-8.291,0-15-6.709-15-15c0-8.291,6.709-15,15-15h90c8.291,0,15,6.709,15,15
			C331,445.291,324.291,452,316,452z M316,392h-60c-8.291,0-15-6.709-15-15c0-8.291,6.709-15,15-15h60c8.291,0,15,6.709,15,15
			S324.291,392,316,392z M316,331h-90c-8.291,0-15-6.709-15-15c0-8.291,6.709-15,15-15h90c8.291,0,15,6.709,15,15
			C331,324.291,324.291,331,316,331z M316,271h-60c-8.291,0-15-6.709-15-15c0-8.291,6.709-15,15-15h60c8.291,0,15,6.709,15,15
			S324.291,271,316,271z M316,210h-90c-8.291,0-15-6.709-15-15s6.709-15,15-15h90c8.291,0,15,6.709,15,15S324.291,210,316,210z
			 M316,150h-60c-8.291,0-15-6.709-15-15s6.709-15,15-15h60c8.291,0,15,6.709,15,15S324.291,150,316,150z"/>
	</g>
</g>
<g>
	<g>
		<path d="M271,0H121c-16.569,0-30,13.431-30,30c0,16.567,13.431,30,30,30h150c16.569,0,30-13.433,30-30C301,13.431,287.569,0,271,0
			z"/>
	</g>
</g>
<g>
	<g>
		<path d="M467,30c-24.814,0-45,20.186-45,45v45h90V75C512,50.186,491.814,30,467,30z"/>
	</g>
</g>
<g>
	<g>
		<rect x="422" y="150" width="90" height="212"/>
	</g>
</g>
<g>
	<g>
		<path d="M426.186,392l26.591,79.746C454.813,477.869,460.54,482,467,482c6.46,0,12.188-4.131,14.224-10.254L507.814,392H426.186z"
			/>
	</g>
</g>
<g>
</g>
<g>
</g>
<g>
</g>
<g>
</g>
<g>
</g>
<g>
</g>
<g>
</g>
<g>
</g>
<g>
</g>
<g>
</g>
<g>
</g>
<g>
</g>
<g>
</g>
<g>
</g>
<g>
</g>
</svg>
