<svg id="Capa_1" enable-background="new 0 0 512 512" height="512" viewBox="0 0 512 512" width="512" xmlns="http://www.w3.org/2000/svg"><g><path d="m504.652 32.109c-4.55-2.703-10.197-2.803-14.845-.271-.517.281-52.411 28.162-113.807 28.162-61.32 0-112.199-27.826-112.687-28.097-2.333-1.302-57.932-31.903-127.313-31.903-44.033 0-82.895 12.324-106 21.65v-6.65c0-8.284-6.716-15-15-15s-15 6.716-15 15v482c0 8.284 6.716 15 15 15s15-6.716 15-15v-111.647c16.759-7.693 58.536-24.353 106-24.353 61.32 0 112.199 27.826 112.687 28.097 2.333 1.302 57.932 31.903 127.313 31.903 69.319 0 125.838-30.546 128.21-31.847 4.803-2.633 7.79-7.676 7.79-13.153v-331c0-5.292-2.798-10.189-7.348-12.891zm-22.652 334.539c-16.764 7.694-58.544 24.352-106 24.352-61.32 0-112.199-27.826-112.687-28.097-2.333-1.302-57.932-31.903-127.313-31.903-44.033 0-82.895 12.324-106 21.65v-57.297c16.759-7.693 58.536-24.353 106-24.353 61.32 0 112.199 27.826 112.687 28.097 2.333 1.302 57.932 31.903 127.313 31.903 44.033 0 82.895-12.324 106-21.65zm0-90.001c-16.759 7.693-58.536 24.353-106 24.353-61.32 0-112.199-27.826-112.687-28.097-2.333-1.302-57.932-31.903-127.313-31.903-44.033 0-82.895 12.324-106 21.65v-57.297c16.759-7.693 58.536-24.353 106-24.353 61.32 0 112.199 27.826 112.687 28.097 2.333 1.302 57.932 31.903 127.313 31.903 44.033 0 82.895-12.324 106-21.65zm0-90c-16.759 7.692-58.536 24.353-106 24.353-61.32 0-112.199-27.826-112.687-28.097-2.333-1.302-57.932-31.903-127.313-31.903-44.033 0-82.895 12.324-106 21.65v-118.297c16.759-7.692 58.536-24.353 106-24.353 61.32 0 112.199 27.826 112.687 28.097 2.333 1.302 57.932 31.903 127.313 31.903 44.027 0 82.894-12.323 106-21.649z"/></g></svg>