<svg height="512pt" viewBox="0 0 512 512" width="512pt" xmlns="http://www.w3.org/2000/svg"><path d="m472 332v-212c0-22.054688-17.945312-40-40-40h-26v20c0 11.046875-8.953125 20-20 20s-20-8.953125-20-20v-20h-91v20c0 11.046875-8.953125 20-20 20s-20-8.953125-20-20v-20h-90v20c0 11.046875-8.953125 20-20 20s-20-8.953125-20-20v-20h-25c-22.054688 0-40 17.945312-40 40v30h372c11.046875 0 20 8.953125 20 20s-8.953125 20-20 20h-372v242c0 22.054688 17.945312 40 40 40h352c22.054688 0 40-17.945312 40-40 0-11.046875 8.953125-20 20-20s20 8.953125 20 20c0 44.113281-35.886719 80-80 80h-352c-44.113281 0-80-35.886719-80-80v-312c0-44.113281 35.886719-80 80-80h25v-20c0-11.046875 8.953125-20 20-20s20 8.953125 20 20v20h90v-20c0-11.046875 8.953125-20 20-20s20 8.953125 20 20v20h91v-20c0-11.046875 8.953125-20 20-20s20 8.953125 20 20v20h26c44.113281 0 80 35.886719 80 80v212c0 11.046875-8.953125 20-20 20s-20-8.953125-20-20zm-206 100c11.046875 0 20-8.953125 20-20v-164c0-7.632812-4.34375-14.601562-11.195312-17.960938-6.855469-3.359374-15.023438-2.523437-21.054688 2.152344l-40 31c-8.730469 6.765625-10.324219 19.328125-3.558594 28.058594 6.769532 8.734375 19.332032 10.324219 28.058594 3.558594l7.75-6.003906v123.195312c0 11.046875 8.953125 20 20 20zm0 0"/></svg>