<?xml version="1.0" encoding="iso-8859-1"?>
<!-- Generator: Adobe Illustrator 19.0.0, SVG Export Plug-In . SVG Version: 6.00 Build 0)  -->
<svg version="1.1" id="Capa_1" xmlns="http://www.w3.org/2000/svg" xmlns:xlink="http://www.w3.org/1999/xlink" x="0px" y="0px"
	 viewBox="0 0 394.8 394.8" style="enable-background:new 0 0 394.8 394.8;" xml:space="preserve">
<g>
	<g>
		<g>
			<path d="M214.4,165.2c-5.2-2.8-11.6-4.4-18.8-4.4c-5.2,0-10,0.8-14.4,2.4c-4.4,1.6-8,4-10.8,7.2c-2.8,3.2-5.2,7.2-6.8,11.6
				c-1.6,4.8-2.4,9.6-2.4,15.2c0,5.2,0.8,10.4,2.4,14.8c1.6,4.4,3.6,8.4,6.8,11.6c2.8,3.2,6.4,5.6,10.8,7.6
				c4.4,1.6,9.2,2.8,14.8,2.8c5.6,0,10.4-0.8,14.8-2.4c4.4-1.6,8-4.4,10.8-7.6s5.2-7.2,6.8-11.6c1.6-4.4,2.4-9.2,2.4-14.8
				c0-7.2-1.2-13.6-4-19.2C223.6,172.4,219.6,168,214.4,165.2z M213.2,211.2c-2,4-4.4,6.8-7.2,8.4c-3.2,2-6.4,2.8-10,2.8
				c-2.8,0-5.6-0.4-8-1.6c-2.4-1.2-4.4-2.8-6.4-4.8s-3.2-4.8-4.4-8c-0.8-3.2-1.6-6.8-1.6-10.8s0.4-7.6,1.6-10.8c1.2-3.2,2.4-6,4-8
				c1.6-2,4-3.6,6.4-4.8c2.4-1.2,5.2-1.6,8-1.6c4,0,7.6,0.8,10.8,2.8s5.6,4.8,7.2,8.4c1.6,3.6,2.4,8.4,2.4,13.6
				C216,202.4,214.8,207.2,213.2,211.2z"/>
			<path d="M345.6,78.8l-0.4-0.4V78l-76-76l-0.4-0.4c0,0-0.4,0-0.4-0.4c0,0-0.4,0-0.4-0.4C266.8,0,265.6,0,264,0H75.6
				C68,0,61.2,3.2,56.4,8s-8,12-8,19.2v340.4c0,7.2,2.8,14,7.6,18.8l0.4,0.4c4.8,4.8,12,8,19.2,8h243.6c7.6,0,14.4-3.2,19.2-8
				s8-12,8-19.2V82.8C346.4,81.2,346,80,345.6,78.8z M271.6,28.8L316.8,74h-33.2c-3.2,0-6.4-1.2-8.4-3.6c-2-2-3.6-5.2-3.6-8.4V28.8z
				 M329.2,367.6c0,2.8-1.2,5.2-3.2,7.2s-4.4,3.2-7.2,3.2H75.6c-2.8,0-5.2-1.2-7.2-3.2l-0.4-0.4c-1.6-2-2.8-4.4-2.8-6.8V26.8
				c0-2.8,1.2-5.2,3.2-7.2s4.4-3.2,7.2-3.2h179.2v45.2c0,8,3.2,15.2,8.8,20.8c5.2,5.2,12.8,8.4,20.8,8.4h44.8V367.6z"/>
			<path d="M260,163.2c-4,1.6-7.6,4-10.8,7.2c-3.2,3.2-5.6,7.2-7.2,11.6c-1.6,4.4-2.4,9.6-2.4,15.2c0,3.6,0.4,6.8,0.8,10
				c0.8,3.2,1.6,6,2.8,8.8s2.8,5.2,4.8,7.6c2,2.4,4.4,4.4,6.8,6c2.4,1.6,5.2,2.4,8.4,3.2c3.2,0.8,6.4,1.2,10,1.2
				c4.8,0,9.2-0.8,12.8-2.4c3.6-1.6,6.8-3.6,9.2-6c2.4-2.4,4-5.2,5.2-7.6c1.2-2.8,1.6-5.2,1.6-7.2c0-1.6-0.8-3.2-2-4.4
				c-1.2-1.2-2.8-1.6-4.4-1.6c-2,0-3.6,0.4-4.4,1.6s-1.6,2.8-2.4,4.4c-1.6,4-3.6,6.8-6.4,8.8s-6.4,3.2-10.4,3.2
				c-3.6,0-7.2-0.8-10-2.8s-5.2-4.4-6.4-8c-1.6-3.6-2.4-8-2.4-13.6c0-8,1.6-14.4,5.2-18.8c3.6-4.4,8-6.8,14-6.8
				c3.6,0,6.8,0.8,9.2,2.4s4.8,4.4,6.4,8c1.2,2,2,3.6,3.2,4.4c0.8,0.8,2.4,1.2,4,1.2c1.6,0,3.2-0.8,4-2c1.2-1.2,1.6-2.8,1.6-4.4
				c0-2.8-1.2-6-3.6-9.6c-2.4-3.2-5.6-6-10.4-8.4c-4.4-2.4-9.6-3.6-15.2-3.6C268.8,160.8,264.4,161.6,260,163.2z"/>
			<path d="M141.2,168.4c-2.8-2.4-6-4-9.6-5.2c-3.6-0.8-7.6-1.2-12.4-1.2h-18.4c-3.2,0-5.2,0.8-6.8,2c-1.2,1.2-2,3.6-2,6.8v51.6
				c0,2.4,0,4,0.8,5.6c0.4,1.6,1.2,2.4,2.4,3.2s3.2,1.2,6,1.2h18.4c3.2,0,6-0.4,8.8-0.8c2.4-0.4,4.8-1.2,7.2-2c2.4-1.2,4.4-2.4,6-4
				c2.4-2.4,4.4-4.8,6-7.6c1.6-2.8,2.8-6,3.6-9.6c0.8-3.6,1.2-7.2,1.2-11.6C152,184.4,148.4,174.8,141.2,168.4z M130.4,217.6
				c-1.2,0.8-2.4,1.6-3.6,2c-1.6,0.4-2.8,0.8-4,0.8c-1.2,0-3.2,0-5.6,0h-10.8v-47.2h9.6c4.4,0,8,0.4,11.2,1.6
				c3.2,0.8,5.6,3.2,7.6,6.8c2,3.6,3.2,8.8,3.2,15.6C137.6,206.8,135.2,213.6,130.4,217.6z"/>
		</g>
	</g>
</g>
<g>
</g>
<g>
</g>
<g>
</g>
<g>
</g>
<g>
</g>
<g>
</g>
<g>
</g>
<g>
</g>
<g>
</g>
<g>
</g>
<g>
</g>
<g>
</g>
<g>
</g>
<g>
</g>
<g>
</g>
</svg>
