<?xml version="1.0" encoding="iso-8859-1"?>
<!-- Generator: Adobe Illustrator 19.0.0, SVG Export Plug-In . SVG Version: 6.00 Build 0)  -->
<svg version="1.1" id="Capa_1" xmlns="http://www.w3.org/2000/svg" xmlns:xlink="http://www.w3.org/1999/xlink" x="0px" y="0px"
	 viewBox="0 0 512 512" style="enable-background:new 0 0 512 512;" xml:space="preserve">
<path style="fill:#3E5959;" d="M452,257v90c0,8.401-6.599,15-15,15s-15-6.599-15-15v-75H90v45c0,8.401-6.599,15-15,15
	s-15-6.599-15-15v-60c0-8.401,6.599-15,15-15h166v-47c0-8.401,6.599-15,15-15s15,6.599,15,15v47h166
	C445.401,242,452,248.599,452,257z"/>
<path style="fill:#384949;" d="M452,257v90c0,8.401-6.599,15-15,15s-15-6.599-15-15v-75H256v-92c8.401,0,15,6.599,15,15v47h166
	C445.401,242,452,248.599,452,257z"/>
<path style="fill:#FFD400;" d="M475.666,422L512,392v-45c0-8.291-6.709-15-15-15H382.211l-25.605-25.605
	C353.793,303.582,349.984,302,346,302h-60c-8.291,0-15,6.709-15,15v75l45.194,30H475.666z"/>
<g>
	<path style="fill:#FFE470;" d="M241,403.557v-75c0-8.291-6.709-15-15-15H111.211l-25.605-25.605
		c-2.813-2.813-6.621-4.395-10.605-4.395H15c-8.291,0-15,6.709-15,15v105H241"/>
	<path style="fill:#FFE470;" d="M376,45v45l-22.5,30H161.499L136,90V15c0-8.401,6.599-15,15-15h60c3.9,0,7.8,1.5,10.499,4.501
		L247.301,30H361C369.401,30,376,36.599,376,45z"/>
</g>
<path style="fill:#FFD400;" d="M353.5,120H256V30h105c8.401,0,15,6.599,15,15v45L353.5,120z"/>
<g>
	<path style="fill:#FDBF00;" d="M241,497c0,8.291-6.709,15-15,15H15c-8.291,0-15-6.709-15-15V392h241V497z"/>
	<path style="fill:#FDBF00;" d="M136,90v105c0,8.401,6.599,15,15,15h210c8.401,0,15-6.599,15-15V90H136z"/>
</g>
<g>
	<path style="fill:#FF9F00;" d="M512,497c0,8.291-6.709,15-15,15H286c-8.291,0-15-6.709-15-15V392h241V497z"/>
	<path style="fill:#FF9F00;" d="M376,90v105c0,8.401-6.599,15-15,15H256V90H376z"/>
</g>
<g>
</g>
<g>
</g>
<g>
</g>
<g>
</g>
<g>
</g>
<g>
</g>
<g>
</g>
<g>
</g>
<g>
</g>
<g>
</g>
<g>
</g>
<g>
</g>
<g>
</g>
<g>
</g>
<g>
</g>
</svg>
