<?xml version="1.0" encoding="UTF-8" standalone="no"?>
<svg
   xmlns:dc="http://purl.org/dc/elements/1.1/"
   xmlns:cc="http://creativecommons.org/ns#"
   xmlns:rdf="http://www.w3.org/1999/02/22-rdf-syntax-ns#"
   xmlns:svg="http://www.w3.org/2000/svg"
   xmlns="http://www.w3.org/2000/svg"
   xmlns:sodipodi="http://sodipodi.sourceforge.net/DTD/sodipodi-0.dtd"
   xmlns:inkscape="http://www.inkscape.org/namespaces/inkscape"
   inkscape:version="1.0 (4035a4fb49, 2020-05-01)"
   sodipodi:docname="folder_empty.svg"
   xml:space="preserve"
   style="enable-background:new 0 0 468.293 468.293;"
   viewBox="0 0 468.293 468.293"
   y="0px"
   x="0px"
   id="Capa_1"
   version="1.1"><metadata
   id="metadata41"><rdf:RDF><cc:Work
       rdf:about=""><dc:format>image/svg+xml</dc:format><dc:type
         rdf:resource="http://purl.org/dc/dcmitype/StillImage" /></cc:Work></rdf:RDF></metadata><defs
   id="defs39" /><sodipodi:namedview
   inkscape:current-layer="Capa_1"
   inkscape:window-maximized="1"
   inkscape:window-y="-8"
   inkscape:window-x="1912"
   inkscape:cy="234.1465"
   inkscape:cx="234.1465"
   inkscape:zoom="1.7671175"
   inkscape:guide-bbox="true"
   showguides="true"
   showgrid="false"
   id="namedview37"
   inkscape:window-height="1017"
   inkscape:window-width="1920"
   inkscape:pageshadow="2"
   inkscape:pageopacity="0"
   guidetolerance="10"
   gridtolerance="10"
   objecttolerance="10"
   borderopacity="1"
   bordercolor="#666666"
   pagecolor="#ffffff" />
<path
   id="path2"
   d="M206.049,72.574V55.559c0-10.345-8.386-18.732-18.732-18.732H18.732C8.386,36.827,0,45.213,0,55.559  v110.248h468.293v-62.013c0-10.345-8.386-18.732-18.732-18.732H218.537C211.64,85.062,206.049,79.471,206.049,72.574z"
   style="fill:#F6C358;" />
<path
   id="path4"
   d="M443.317,431.466H24.976C11.182,431.466,0,420.284,0,406.49V161.35h206.748  c5.268,0,10.293-2.218,13.842-6.111l23.013-25.241c3.549-3.893,8.574-6.111,13.842-6.111h210.848V406.49  C468.293,420.284,457.111,431.466,443.317,431.466z"
   style="fill:#FCD462;" />
<g
   id="g6">
</g>
<g
   id="g8">
</g>
<g
   id="g10">
</g>
<g
   id="g12">
</g>
<g
   id="g14">
</g>
<g
   id="g16">
</g>
<g
   id="g18">
</g>
<g
   id="g20">
</g>
<g
   id="g22">
</g>
<g
   id="g24">
</g>
<g
   id="g26">
</g>
<g
   id="g28">
</g>
<g
   id="g30">
</g>
<g
   id="g32">
</g>
<g
   id="g34">
</g>
<g
   transform="rotate(43.569666,336.33135,419.24904)"
   id="g889"><rect
     style="fill:#ff0000"
     id="rect866"
     width="29.426455"
     height="122.79885"
     x="302.18704"
     y="277.85364" /><rect
     y="-379.7854"
     x="321.79788"
     height="122.79885"
     width="29.426455"
     id="rect866-1"
     style="fill:#ff0000"
     transform="rotate(90.290542)" /></g></svg>
