<?xml version="1.0" encoding="iso-8859-1"?>
<!-- Generator: Adobe Illustrator 19.0.0, SVG Export Plug-In . SVG Version: 6.00 Build 0)  -->
<svg version="1.1" id="Capa_1" xmlns="http://www.w3.org/2000/svg" xmlns:xlink="http://www.w3.org/1999/xlink" x="0px" y="0px"
	 viewBox="0 0 445.44 445.44" style="enable-background:new 0 0 445.44 445.44;" xml:space="preserve">
<g>
	<g>
		<path d="M404.736,80.384L334.08,0l-20.992,18.432l49.152,56.32c-29.696,1.536-52.736,28.16-49.152,58.368
			c2.56,23.04,21.504,42.496,44.544,46.08c12.8,1.536,25.088-1.024,34.816-7.68v198.656c0,12.8-9.216,25.088-22.528,26.112
			c-14.848,1.536-27.136-9.728-27.136-25.088v-88.576c0-26.112-20.992-47.104-47.104-47.104h-12.288V74.24
			c0-36.352-29.696-66.56-66.56-66.56H90.88c-36.352,0-66.56,29.696-66.56,66.56v371.2h260.096V263.168h12.288
			c10.752,0,19.456,8.704,19.456,19.456v86.528c0,28.16,20.992,52.736,48.64,54.272c30.208,2.048,56.32-22.016,56.32-52.736V123.392
			C421.12,107.52,414.976,91.648,404.736,80.384z M366.336,152.064c-13.824,0-25.088-11.264-25.088-25.088
			c0-13.824,11.264-25.088,25.088-25.088s25.088,11.264,25.088,25.088C391.424,140.8,379.136,152.064,366.336,152.064z
			 M186.112,353.792c-8.704,8.192-19.968,12.8-31.744,12.8s-22.528-4.608-31.744-12.8c-16.896-16.384-16.896-44.032,0-60.928
			l23.552-23.04c4.096-4.096,11.264-4.096,14.848,0l23.552,23.04C203.008,309.248,203.008,336.896,186.112,353.792z M70.4,169.472
			V86.528c0-12.288,9.728-22.016,22.016-22.016h126.976c12.288,0,22.016,9.728,22.016,22.016v82.944H70.4z"/>
	</g>
</g>
<g>
</g>
<g>
</g>
<g>
</g>
<g>
</g>
<g>
</g>
<g>
</g>
<g>
</g>
<g>
</g>
<g>
</g>
<g>
</g>
<g>
</g>
<g>
</g>
<g>
</g>
<g>
</g>
<g>
</g>
</svg>
