<?xml version="1.0" encoding="utf-8"?>
<!-- Svg Vector Icons : http://www.onlinewebfonts.com/icon -->
<!DOCTYPE svg PUBLIC "-//W3C//DTD SVG 1.1//EN" "http://www.w3.org/Graphics/SVG/1.1/DTD/svg11.dtd">
<svg version="1.1" xmlns="http://www.w3.org/2000/svg" xmlns:xlink="http://www.w3.org/1999/xlink" x="0px" y="0px" viewBox="0 0 1000 1000" enable-background="new 0 0 1000 1000" xml:space="preserve">
<metadata> Svg Vector Icons : http://www.onlinewebfonts.com/icon </metadata>
<g><g transform="translate(0.000000,511.000000) scale(0.100000,-0.100000)"><path d="M2527.1,4686.8c-118-178-210.9-329-207.1-336.7c13.5-19.4,1211.3-814.6,1217.1-806.9c77.4,90.9,435.4,663.7,423.8,673.4c-36.8,34.8-1186.2,793.4-1201.6,793.4C2749.7,5010,2645.2,4864.9,2527.1,4686.8z"/><path d="M6635.2,4621.1c-319.3-212.9-588.2-394.7-596-402.5c-11.6-11.6,350.2-590.2,423.8-677.3c5.8-7.7,1159.1,758.5,1201.6,799.2c19.4,17.4-21.3,92.9-187.7,340.6c-116.1,176.1-222.5,321.2-236.1,323.1C7227.3,5006.1,6954.5,4833.9,6635.2,4621.1z"/><path d="M4758.2,3409.7c-234.1-85.1-396.7-228.3-499.2-447c-60-125.8-61.9-139.3-67.7-433.5l-7.7-305.7h816.6h816.6l-7.8,305.7c-5.8,296.1-7.7,307.7-67.7,433.5c-85.1,180-210.9,309.6-388.9,396.7c-127.7,63.9-162.5,73.5-321.2,77.4C4899.5,3442.6,4831.7,3434.9,4758.2,3409.7z"/><path d="M1710.6,2629.9v-406.4h812.7H3336v406.4v406.4h-812.7h-812.7V2629.9z"/><path d="M6664.2,2629.9v-406.4h812.7h812.7v406.4v406.4h-812.7h-812.7V2629.9z"/><path d="M2391.7,1776.6c-36.8-11.6-102.6-56.1-147.1-102.5c-83.2-81.3-89-96.8-460.5-1213.3l-377.3-1130l-152.9-13.6C917.2-709.9,675.3-876.3,536-1174.3l-54.2-114.2l-5.8-1161c-3.9-638.6,0-1190,5.8-1224.9c17.4-89,170.3-245.7,270.9-272.8c42.6-11.6,180-21.3,303.8-21.3h226.4l11.6-71.6c48.4-317.3,209-547.6,462.5-665.7c503.1-236.1,1064.3,60,1159.1,609.6l21.3,127.7H5004h2066.6v-54.2c0-69.7,52.2-243.8,100.6-340.6c145.1-284.4,516.7-470.2,836-418c375.4,60,634.7,336.7,698.5,741.1l11.6,71.6H8963c195.5,0,261.2,7.8,323.2,36.8c96.8,42.6,195.4,152.9,222.5,247.7c15.4,52.2,19.3,427.6,15.4,1234.5l-5.8,1161l-54.2,114.2c-139.3,298-381.2,464.4-717.9,491.5l-152.9,13.6L8212.2,470.4L7831,1612.1l-81.3,73.5c-46.4,40.6-116.1,81.3-154.8,92.9C7502.1,1803.7,2480.7,1801.7,2391.7,1776.6z M7455.6,166.6c150.9-448.9,272.8-822.4,272.8-832.1c0-7.8-1226.8-13.5-2728.4-13.5c-1499.6,0-2728.4,5.8-2728.4,13.5c0,9.7,121.9,383.1,272.8,832.1l272.8,818.5h2182.7h2182.7L7455.6,166.6z M8715.3-2323.7v-832.1H5000.1H1284.8v832.1v832.1h3715.2h3715.2V-2323.7z"/><path d="M1710.6-2323.7v-406.3h1219.1c671.5,0,1219.1,5.8,1219.1,11.6c0,5.8-32.9,73.5-71.6,150.9c-106.4,203.2-319.3,408.3-528.3,512.8c-261.2,127.7-336.7,137.4-1135.9,137.4h-702.4V-2323.7z"/><path d="M6741.6-1948.3c-216.7-46.4-433.5-168.4-601.8-334.8c-133.5-135.4-241.9-294.1-276.7-402.5l-13.6-44.5h1219.1h1221v406.3v406.4l-710.2-1.9C7047.3-1919.3,6836.4-1927.1,6741.6-1948.3z"/></g></g>
</svg>