<svg height="511pt" viewBox="1 -34 511.999 511" width="511pt" xmlns="http://www.w3.org/2000/svg"><path d="m415.058594 49.683594c-28.46875 0-51.628906 23.160156-51.628906 51.628906s23.160156 51.628906 51.628906 51.628906 51.628906-23.160156 51.628906-51.628906-23.160156-51.628906-51.628906-51.628906zm0 88.226562c-20.183594 0-36.597656-16.417968-36.597656-36.597656s16.417968-36.597656 36.597656-36.597656c20.179687 0 36.597656 16.417968 36.597656 36.597656s-16.417969 36.597656-36.597656 36.597656zm0 0"/><path d="m473.679688.5h-380.390626c-21.128906 0-38.316406 17.1875-38.316406 38.316406v18.859375h-16.652344c-21.128906 0-38.320312 17.1875-38.320312 38.320313v309.46875c0 21.132812 17.191406 38.320312 38.320312 38.320312h251.746094c4.152344 0 7.515625-3.363281 7.515625-7.515625 0-4.148437-3.363281-7.511719-7.515625-7.511719h-251.746094c-12.84375 0-23.292968-10.449218-23.292968-23.292968v-309.46875c0-12.84375 10.449218-23.292969 23.292968-23.292969h16.652344v275.589844c0 21.128906 17.1875 38.316406 38.316406 38.316406h348.710938v18.855469c0 12.84375-10.449219 23.292968-23.289062 23.292968h-81.050782c-4.152344 0-7.515625 3.363282-7.515625 7.511719 0 4.152344 3.363281 7.515625 7.515625 7.515625h81.050782c21.128906 0 38.316406-17.1875 38.316406-38.320312v-18.855469h16.652344c21.128906 0 38.320312-17.1875 38.320312-38.316406v-309.476563c0-21.128906-17.191406-38.316406-38.320312-38.316406zm23.292968 281.925781-100.167968-112.882812c-2.277344-2.570313-5.558594-4.105469-8.992188-4.207031-3.429688-.125-6.800781 1.230468-9.230469 3.660156l-62.109375 62.082031-82.105468-92.53125c-2.277344-2.570313-5.558594-4.101563-8.992188-4.203125-3.46875-.125-6.800781 1.230469-9.230469 3.660156l-58.222656 58.195313c-2.9375 2.933593-2.9375 7.691406-.003906 10.628906 2.933593 2.9375 7.691406 2.933594 10.625 0l56.347656-56.316406 106.714844 120.265625c1.484375 1.671875 3.550781 2.523437 5.625 2.523437 1.773437 0 3.554687-.621093 4.984375-1.890625 3.105468-2.757812 3.386718-7.503906.632812-10.609375l-16.382812-18.464843 60.863281-60.832032 109.644531 123.566406v43.21875c0 12.84375-10.449218 23.292969-23.292968 23.292969h-380.390626c-12.839843 0-23.289062-10.449219-23.289062-23.292969v-42.960937l66.082031-66.046875c2.933594-2.9375 2.9375-7.695312.003907-10.628906-2.9375-2.9375-7.695313-2.9375-10.628907-.003906l-55.457031 55.433593v-245.265625c0-12.839844 10.449219-23.289062 23.289062-23.289062h380.390626c12.84375 0 23.292968 10.449218 23.292968 23.289062zm0 0"/></svg>