<?xml version="1.0" encoding="UTF-8" standalone="no"?>
<svg
   xmlns:dc="http://purl.org/dc/elements/1.1/"
   xmlns:cc="http://creativecommons.org/ns#"
   xmlns:rdf="http://www.w3.org/1999/02/22-rdf-syntax-ns#"
   xmlns:svg="http://www.w3.org/2000/svg"
   xmlns="http://www.w3.org/2000/svg"
   xmlns:sodipodi="http://sodipodi.sourceforge.net/DTD/sodipodi-0.dtd"
   xmlns:inkscape="http://www.inkscape.org/namespaces/inkscape"
   inkscape:version="1.0 (4035a4fb49, 2020-05-01)"
   sodipodi:docname="js.svg"
   xml:space="preserve"
   style="enable-background:new 0 0 384 384;"
   viewBox="0 0 384 384"
   y="0px"
   x="0px"
   id="Capa_1"
   version="1.1"><metadata
   id="metadata55"><rdf:RDF><cc:Work
       rdf:about=""><dc:format>image/svg+xml</dc:format><dc:type
         rdf:resource="http://purl.org/dc/dcmitype/StillImage" /><dc:title></dc:title></cc:Work></rdf:RDF></metadata><defs
   id="defs53" /><sodipodi:namedview
   inkscape:current-layer="Capa_1"
   inkscape:window-maximized="0"
   inkscape:window-y="167"
   inkscape:window-x="2536"
   inkscape:cy="192"
   inkscape:cx="192"
   inkscape:zoom="0.69459411"
   showgrid="false"
   id="namedview51"
   inkscape:window-height="480"
   inkscape:window-width="837"
   inkscape:pageshadow="2"
   inkscape:pageopacity="0"
   guidetolerance="10"
   gridtolerance="10"
   objecttolerance="10"
   borderopacity="1"
   bordercolor="#666666"
   pagecolor="#ffffff" />
<polygon
   id="polygon2"
   points="72,8 376,8 376,280 280,376 72,376 "
   style="fill:#EFEEEE;" />
<polygon
   id="polygon4"
   points="280,280 376,280 280,376 "
   style="fill:#ABABAB;" />
<rect
   id="rect6"
   height="162"
   width="318"
   style="fill:#cb9c41;fill-opacity:1;stroke-width:1.25385"
   y="74"
   x="16" />

<g
   transform="matrix(1.3993393,0,0,1.3993393,-11.570456,-55.80846)"
   id="g18">
	<path
   id="path10"
   d="m 121.69618,169.00085 c 0,9.5122 -2.16947,16.29173 -6.61268,20.35945 -4.40148,4.026 -11.16018,6.07029 -20.25521,6.07029 -4.77697,0 -8.67782,-0.64666 -11.72339,-1.96085 -3.045575,-1.29332 -5.486206,-3.10815 -7.280174,-5.50706 -1.793969,-2.39892 -3.024714,-5.15245 -3.671377,-8.32318 -0.688383,-3.14988 -1.022145,-6.50835 -1.022145,-9.99199 v -3.90084 H 87.65239 v 2.7744 c 0,4.7561 0.50066,8.26059 1.56452,10.57606 1.04301,2.27376 3.17075,3.44192 6.44579,3.44192 3.27505,0 5.42364,-1.16816 6.46665,-3.44192 1.04301,-2.29461 1.56451,-5.81996 1.56451,-10.57606 v -63.85275 h 18.00232 c 0,0 0,64.33253 0,64.33253 z"
   style="fill:#ffffff;stroke-width:1.30376" />
	<path
   id="path12"
   d="m 155.48962,168.75053 c 0,2.08601 0.2086,3.98428 0.5215,5.67394 0.33377,1.71053 0.95957,3.14988 1.87743,4.31804 0.91784,1.18903 2.16945,2.10687 3.71309,2.7744 1.5228,0.64666 3.46279,1.00128 5.79914,1.00128 2.75353,0 5.23588,-0.89698 7.42619,-2.69095 2.21117,-1.79397 3.33762,-4.58922 3.33762,-8.32318 0,-2.00257 -0.29205,-3.73396 -0.81355,-5.19416 -0.54236,-1.46021 -1.43934,-2.7744 -2.69095,-3.9217 -1.27247,-1.18903 -2.92041,-2.23203 -4.9647,-3.1916 -2.04429,-0.95956 -4.56838,-1.93999 -7.55138,-2.94127 -4.00514,-1.33505 -7.46793,-2.81611 -10.38836,-4.40148 -2.92041,-1.56451 -5.36106,-3.42106 -7.3219,-5.56965 -1.96087,-2.12773 -3.42107,-4.58922 -4.31806,-7.38447 -0.9387,-2.81611 -1.37676,-6.02857 -1.37676,-9.7208 0,-8.84469 2.46149,-15.41562 7.38448,-19.75452 4.923,-4.33889 11.70256,-6.50834 20.29694,-6.50834 3.98428,0 7.69738,0.43806 11.07671,1.31419 3.37934,0.87612 6.29975,2.27375 8.76124,4.25545 2.44063,1.96085 4.38062,4.46406 5.73653,7.48877 1.37677,3.04558 2.08601,6.6961 2.08601,10.95155 v 2.50322 h -17.29302 c 0,-4.25546 -0.75096,-7.5305 -2.23203,-9.84597 -1.50193,-2.27375 -4.026,-3.44191 -7.5305,-3.44191 -2.00258,0 -3.67139,0.3129 -4.98558,0.87612 -1.31419,0.58408 -2.39892,1.35591 -3.1916,2.31547 -0.79268,0.95956 -1.37677,2.10687 -1.64795,3.35848 -0.29205,1.2516 -0.43807,2.54493 -0.43807,3.87997 0,2.7744 0.58409,5.06901 1.75226,6.94642 1.16816,1.89826 3.67138,3.62965 7.50965,5.19416 l 13.89283,6.00771 c 3.42106,1.50192 6.19545,3.06643 8.3649,4.71438 2.16945,1.64795 3.90084,3.37933 5.19417,5.25674 1.29332,1.87741 2.19031,3.9217 2.69095,6.19545 0.50064,2.23203 0.75096,4.7561 0.75096,7.48878 0,9.42876 -2.73267,16.29173 -8.21888,20.58891 -5.46534,4.29718 -13.07928,6.46663 -22.82095,6.46663 -10.17976,0 -17.4808,-2.21117 -21.86145,-6.63351 -4.38062,-4.42234 -6.57094,-10.76381 -6.57094,-19.02441 v -3.62965 h 18.04403 c 0,0 0,2.60751 0,2.60751 z"
   style="fill:#ffffff;stroke-width:1.30376" />
	
	
</g>
<g
   id="g20">
</g>
<g
   id="g22">
</g>
<g
   id="g24">
</g>
<g
   id="g26">
</g>
<g
   id="g28">
</g>
<g
   id="g30">
</g>
<g
   id="g32">
</g>
<g
   id="g34">
</g>
<g
   id="g36">
</g>
<g
   id="g38">
</g>
<g
   id="g40">
</g>
<g
   id="g42">
</g>
<g
   id="g44">
</g>
<g
   id="g46">
</g>
<g
   id="g48">
</g>
<path
   id="path8"
   d="M 64,0 V 58 H 0 v 194 h 64 v 132 h 224 l 96,-96 V 0 Z M 16,74 H 334 V 236 H 16 Z M 288,361.376 V 288 h 73.376 z M 368,272 h -96 v 96 H 80 V 252 H 350 V 58 H 80 V 16 h 288 z"
   style="fill:#010101"
   sodipodi:nodetypes="cccccccccccccccccccccccccccccc" /></svg>
