<?xml version="1.0" encoding="UTF-8" standalone="no"?>
<svg
   xmlns:dc="http://purl.org/dc/elements/1.1/"
   xmlns:cc="http://creativecommons.org/ns#"
   xmlns:rdf="http://www.w3.org/1999/02/22-rdf-syntax-ns#"
   xmlns:svg="http://www.w3.org/2000/svg"
   xmlns="http://www.w3.org/2000/svg"
   xmlns:sodipodi="http://sodipodi.sourceforge.net/DTD/sodipodi-0.dtd"
   xmlns:inkscape="http://www.inkscape.org/namespaces/inkscape"
   inkscape:version="1.0 (4035a4fb49, 2020-05-01)"
   sodipodi:docname="json.svg"
   xml:space="preserve"
   style="enable-background:new 0 0 384 384;"
   viewBox="0 0 384 384"
   y="0px"
   x="0px"
   id="Capa_1"
   version="1.1"><metadata
   id="metadata55"><rdf:RDF><cc:Work
       rdf:about=""><dc:format>image/svg+xml</dc:format><dc:type
         rdf:resource="http://purl.org/dc/dcmitype/StillImage" /></cc:Work></rdf:RDF></metadata><defs
   id="defs53" /><sodipodi:namedview
   inkscape:current-layer="Capa_1"
   inkscape:window-maximized="1"
   inkscape:window-y="-8"
   inkscape:window-x="-8"
   inkscape:cy="192"
   inkscape:cx="192"
   inkscape:zoom="2.1550227"
   showgrid="false"
   id="namedview51"
   inkscape:window-height="1017"
   inkscape:window-width="1920"
   inkscape:pageshadow="2"
   inkscape:pageopacity="0"
   guidetolerance="10"
   gridtolerance="10"
   objecttolerance="10"
   borderopacity="1"
   bordercolor="#666666"
   pagecolor="#ffffff" />
<polygon
   id="polygon2"
   points="72,8 376,8 376,280 280,376 72,376 "
   style="fill:#EFEEEE;" />
<polygon
   id="polygon4"
   points="280,280 376,280 280,376 "
   style="fill:#ABABAB;" />
<rect
   id="rect6"
   height="162"
   width="318"
   style="fill:#cb5641;stroke-width:1.25385"
   y="74"
   x="16" />

<g
   transform="matrix(1.3993393,0,0,1.3993393,-11.570456,-55.80846)"
   id="g18">
	<path
   id="path10"
   d="m 64.272,167.2 c 0,7.296 -1.664,12.496 -5.072,15.616 -3.376,3.088 -8.56,4.656 -15.536,4.656 -3.664,0 -6.656,-0.496 -8.992,-1.504 -2.336,-0.992 -4.208,-2.384 -5.584,-4.224 -1.376,-1.84 -2.32,-3.952 -2.816,-6.384 -0.528,-2.416 -0.784,-4.992 -0.784,-7.664 v -2.992 H 38.16 v 2.128 c 0,3.648 0.384,6.336 1.2,8.112 0.8,1.744 2.432,2.64 4.944,2.64 2.512,0 4.16,-0.896 4.96,-2.64 0.8,-1.76 1.2,-4.464 1.2,-8.112 v -48.976 h 13.808 c 0,0 0,49.344 0,49.344 z"
   style="fill:#ffffff" />
	<path
   id="path12"
   d="m 90.192,167.008 c 0,1.6 0.16,3.056 0.4,4.352 0.256,1.312 0.736,2.416 1.44,3.312 0.704,0.912 1.664,1.616 2.848,2.128 1.168,0.496 2.656,0.768 4.448,0.768 2.112,0 4.016,-0.688 5.696,-2.064 1.696,-1.376 2.56,-3.52 2.56,-6.384 0,-1.536 -0.224,-2.864 -0.624,-3.984 -0.416,-1.12 -1.104,-2.128 -2.064,-3.008 -0.976,-0.912 -2.24,-1.712 -3.808,-2.448 -1.568,-0.736 -3.504,-1.488 -5.792,-2.256 -3.072,-1.024 -5.728,-2.16 -7.968,-3.376 -2.24,-1.2 -4.112,-2.624 -5.616,-4.272 -1.504,-1.632 -2.624,-3.52 -3.312,-5.664 -0.72,-2.16 -1.056,-4.624 -1.056,-7.456 0,-6.784 1.888,-11.824 5.664,-15.152 3.776,-3.328 8.976,-4.992 15.568,-4.992 3.056,0 5.904,0.336 8.496,1.008 2.592,0.672 4.832,1.744 6.72,3.264 1.872,1.504 3.36,3.424 4.4,5.744 1.056,2.336 1.6,5.136 1.6,8.4 v 1.92 h -13.264 c 0,-3.264 -0.576,-5.776 -1.712,-7.552 -1.152,-1.744 -3.088,-2.64 -5.776,-2.64 -1.536,0 -2.816,0.24 -3.824,0.672 -1.008,0.448 -1.84,1.04 -2.448,1.776 -0.608,0.736 -1.056,1.616 -1.264,2.576 -0.224,0.96 -0.336,1.952 -0.336,2.976 0,2.128 0.448,3.888 1.344,5.328 0.896,1.456 2.816,2.784 5.76,3.984 l 10.656,4.608 c 2.624,1.152 4.752,2.352 6.416,3.616 1.664,1.264 2.992,2.592 3.984,4.032 0.992,1.44 1.68,3.008 2.064,4.752 0.384,1.712 0.576,3.648 0.576,5.744 0,7.232 -2.096,12.496 -6.304,15.792 -4.192,3.296 -10.032,4.96 -17.504,4.96 -7.808,0 -13.408,-1.696 -16.768,-5.088 -3.36,-3.392 -5.04,-8.256 -5.04,-14.592 v -2.784 h 13.84 c 0,0 0,2 0,2 z"
   style="fill:#ffffff" />
	<path
   id="path14"
   d="m 133.936,137.776 c 0.464,-4.368 1.536,-8.144 3.152,-11.28 1.648,-3.12 4,-5.584 7.056,-7.344 3.056,-1.744 7.2,-2.64 12.368,-2.64 5.184,0 9.312,0.896 12.384,2.64 3.072,1.76 5.424,4.224 7.04,7.344 1.648,3.136 2.688,6.912 3.184,11.28 0.464,4.384 0.72,9.168 0.72,14.352 0,5.232 -0.256,10.048 -0.72,14.384 -0.496,4.352 -1.552,8.096 -3.184,11.232 -1.632,3.136 -3.968,5.536 -7.04,7.2 -3.072,1.664 -7.2,2.496 -12.384,2.496 -5.168,0 -9.312,-0.848 -12.368,-2.496 -3.056,-1.664 -5.424,-4.064 -7.056,-7.2 -1.632,-3.136 -2.688,-6.88 -3.152,-11.232 -0.48,-4.336 -0.72,-9.152 -0.72,-14.384 0,-5.168 0.24,-9.952 0.72,-14.352 z m 13.44,26.112 c 0.224,3.232 0.672,5.856 1.344,7.872 0.672,2.016 1.632,3.488 2.88,4.416 1.248,0.928 2.912,1.392 4.944,1.392 2.064,0 3.696,-0.464 4.96,-1.392 1.248,-0.944 2.208,-2.4 2.896,-4.416 0.656,-2.016 1.104,-4.64 1.344,-7.872 0.224,-3.232 0.336,-7.136 0.336,-11.744 0,-4.608 -0.112,-8.512 -0.336,-11.712 -0.24,-3.2 -0.688,-5.824 -1.344,-7.872 -0.688,-2.048 -1.648,-3.536 -2.896,-4.448 -1.248,-0.944 -2.896,-1.408 -4.96,-1.408 -2.032,0 -3.68,0.464 -4.944,1.408 -1.248,0.928 -2.208,2.4 -2.88,4.448 -0.672,2.048 -1.12,4.672 -1.344,7.872 -0.224,3.2 -0.336,7.104 -0.336,11.712 0,4.608 0.112,8.512 0.336,11.744 z"
   style="fill:#ffffff" />
	<path
   id="path16"
   d="m 226.432,164.816 h 0.192 v -46.96 h 12.672 V 186.4 h -15.728 l -16.912,-48 h -0.192 v 48 h -12.688 v -68.544 h 15.936 z"
   style="fill:#ffffff" />
</g>
<g
   id="g20">
</g>
<g
   id="g22">
</g>
<g
   id="g24">
</g>
<g
   id="g26">
</g>
<g
   id="g28">
</g>
<g
   id="g30">
</g>
<g
   id="g32">
</g>
<g
   id="g34">
</g>
<g
   id="g36">
</g>
<g
   id="g38">
</g>
<g
   id="g40">
</g>
<g
   id="g42">
</g>
<g
   id="g44">
</g>
<g
   id="g46">
</g>
<g
   id="g48">
</g>
<path
   id="path8"
   d="M 64,0 V 58 H 0 v 194 h 64 v 132 h 224 l 96,-96 V 0 Z M 16,74 H 334 V 236 H 16 Z M 288,361.376 V 288 h 73.376 z M 368,272 h -96 v 96 H 80 V 252 H 350 V 58 H 80 V 16 h 288 z"
   style="fill:#010101"
   sodipodi:nodetypes="cccccccccccccccccccccccccccccc" /></svg>
