<svg height="466pt" viewBox="-19 0 466 466" width="466pt" xmlns="http://www.w3.org/2000/svg"><path d="m319.671875 140h-133.660156v-25h-16v25h-133.683594c-4.480469-.023438-8.167969 3.519531-8.316406 8v33h16v-25h126v24h16v-24h126v25h16v-33c-.164063-4.480469-3.855469-8.023438-8.339844-8zm0 0" fill="#fedb41"/><path d="m383.808594 314h-61.796875v-19h-16v19h-61.871094c-4.507813.144531-8.09375 3.820312-8.128906 8.328125v33.671875h16v-26h124v24h16v-31.671875c-.070313-4.519531-3.679688-8.1875-8.203125-8.328125zm0 0" fill="#fedb41"/><path d="m340.269531 350.589844h87.75v115.410156h-87.75zm0 0" fill="#00acea"/><path d="m319.671875 180h36.328125v115.410156h-87.75v-115.410156zm0 0" fill="#00efd1"/><path d="m200.269531 350.589844h87.75v115.410156h-87.75zm0 0" fill="#00efd1"/><path d="m221.878906 180v115.410156h-87.75v-115.410156zm0 0" fill="#00acea"/><path d="m178.011719 115.410156h-43.882813v-115.410156h87.75v115.410156zm0 0" fill="#00efd1"/><path d="m36.328125 180h51.421875v115.410156h-87.75v-115.410156zm0 0" fill="#00acea"/><path d="m198.78125 31.070312h-41.5625c-4.417969 0-8-3.582031-8-8 0-4.417968 3.582031-8 8-8h41.5625c4.417969 0 8 3.582032 8 8 0 4.417969-3.582031 8-8 8zm0 0" fill="#00acea"/><path d="m198.78125 54.160156h-41.5625c-4.417969 0-8-3.582031-8-8 0-4.417968 3.582031-8 8-8h41.5625c4.417969 0 8 3.582032 8 8 0 4.417969-3.582031 8-8 8zm0 0" fill="#00acea"/><path d="m198.78125 77.25h-41.5625c-4.417969 0-8-3.582031-8-8s3.582031-8 8-8h41.5625c4.417969 0 8 3.582031 8 8s-3.582031 8-8 8zm0 0" fill="#00acea"/><path d="m198.78125 100.339844h-41.5625c-4.417969 0-8-3.582032-8-8 0-4.417969 3.582031-8 8-8h41.5625c4.417969 0 8 3.582031 8 8 0 4.417968-3.582031 8-8 8zm0 0" fill="#00acea"/><g fill="#00efd1"><path d="m198.78125 211.070312h-41.5625c-4.417969 0-8-3.582031-8-8 0-4.417968 3.582031-8 8-8h41.5625c4.417969 0 8 3.582032 8 8 0 4.417969-3.582031 8-8 8zm0 0"/><path d="m198.78125 234.160156h-41.5625c-4.417969 0-8-3.582031-8-8 0-4.417968 3.582031-8 8-8h41.5625c4.417969 0 8 3.582032 8 8 0 4.417969-3.582031 8-8 8zm0 0"/><path d="m198.78125 257.25h-41.5625c-4.417969 0-8-3.582031-8-8s3.582031-8 8-8h41.5625c4.417969 0 8 3.582031 8 8s-3.582031 8-8 8zm0 0"/><path d="m198.78125 280.339844h-41.5625c-4.417969 0-8-3.582032-8-8 0-4.417969 3.582031-8 8-8h41.5625c4.417969 0 8 3.582031 8 8 0 4.417968-3.582031 8-8 8zm0 0"/><path d="m404.929688 381.660156h-41.570313c-4.417969 0-8-3.582031-8-8 0-4.417968 3.582031-8 8-8h41.570313c4.417968 0 8 3.582032 8 8 0 4.417969-3.582032 8-8 8zm0 0"/><path d="m404.929688 404.75h-41.570313c-4.417969 0-8-3.582031-8-8s3.582031-8 8-8h41.570313c4.417968 0 8 3.582031 8 8s-3.582032 8-8 8zm0 0"/><path d="m404.929688 427.839844h-41.570313c-4.417969 0-8-3.582032-8-8 0-4.417969 3.582031-8 8-8h41.570313c4.417968 0 8 3.582031 8 8 0 4.417968-3.582032 8-8 8zm0 0"/><path d="m404.929688 450.929688h-41.570313c-4.417969 0-8-3.582032-8-8 0-4.417969 3.582031-8 8-8h41.570313c4.417968 0 8 3.582031 8 8 0 4.417968-3.582032 8-8 8zm0 0"/></g><path d="m264.929688 381.660156h-41.570313c-4.417969 0-8-3.582031-8-8 0-4.417968 3.582031-8 8-8h41.570313c4.417968 0 8 3.582032 8 8 0 4.417969-3.582032 8-8 8zm0 0" fill="#00acea"/><path d="m264.929688 404.75h-41.570313c-4.417969 0-8-3.582031-8-8s3.582031-8 8-8h41.570313c4.417968 0 8 3.582031 8 8s-3.582032 8-8 8zm0 0" fill="#00acea"/><path d="m264.929688 427.839844h-41.570313c-4.417969 0-8-3.582032-8-8 0-4.417969 3.582031-8 8-8h41.570313c4.417968 0 8 3.582031 8 8 0 4.417968-3.582032 8-8 8zm0 0" fill="#00acea"/><path d="m264.929688 450.929688h-41.570313c-4.417969 0-8-3.582032-8-8 0-4.417969 3.582031-8 8-8h41.570313c4.417968 0 8 3.582031 8 8 0 4.417968-3.582032 8-8 8zm0 0" fill="#00acea"/><path d="m64.660156 211.070312h-41.570312c-4.417969 0-8-3.582031-8-8 0-4.417968 3.582031-8 8-8h41.570312c4.417969 0 8 3.582032 8 8 0 4.417969-3.582031 8-8 8zm0 0" fill="#00efd1"/><path d="m64.660156 234.160156h-41.570312c-4.417969 0-8-3.582031-8-8 0-4.417968 3.582031-8 8-8h41.570312c4.417969 0 8 3.582032 8 8 0 4.417969-3.582031 8-8 8zm0 0" fill="#00efd1"/><path d="m64.660156 257.25h-41.570312c-4.417969 0-8-3.582031-8-8s3.582031-8 8-8h41.570312c4.417969 0 8 3.582031 8 8s-3.582031 8-8 8zm0 0" fill="#00efd1"/><path d="m64.660156 280.339844h-41.570312c-4.417969 0-8-3.582032-8-8 0-4.417969 3.582031-8 8-8h41.570312c4.417969 0 8 3.582031 8 8 0 4.417968-3.582031 8-8 8zm0 0" fill="#00efd1"/><path d="m332.910156 211.070312h-41.570312c-4.417969 0-8-3.582031-8-8 0-4.417968 3.582031-8 8-8h41.570312c4.417969 0 8 3.582032 8 8 0 4.417969-3.582031 8-8 8zm0 0" fill="#00acea"/><path d="m332.910156 234.160156h-41.570312c-4.417969 0-8-3.582031-8-8 0-4.417968 3.582031-8 8-8h41.570312c4.417969 0 8 3.582032 8 8 0 4.417969-3.582031 8-8 8zm0 0" fill="#00acea"/><path d="m332.910156 257.25h-41.570312c-4.417969 0-8-3.582031-8-8s3.582031-8 8-8h41.570312c4.417969 0 8 3.582031 8 8s-3.582031 8-8 8zm0 0" fill="#00acea"/><path d="m332.910156 280.339844h-41.570312c-4.417969 0-8-3.582032-8-8 0-4.417969 3.582031-8 8-8h41.570312c4.417969 0 8 3.582031 8 8 0 4.417968-3.582031 8-8 8zm0 0" fill="#00acea"/></svg>