<?xml version="1.0" encoding="iso-8859-1"?>
<!-- Generator: Adobe Illustrator 19.0.0, SVG Export Plug-In . SVG Version: 6.00 Build 0)  -->
<svg version="1.1" id="Capa_1" xmlns="http://www.w3.org/2000/svg" xmlns:xlink="http://www.w3.org/1999/xlink" x="0px" y="0px"
	 viewBox="0 0 512 512" style="enable-background:new 0 0 512 512;" xml:space="preserve">
<g>
	<g>
		<path d="M504.5,496.751H15v-87.417h348.501c4.142,0,7.5-3.357,7.5-7.5s-3.358-7.5-7.5-7.5H16.502v-77h447.17v77h-47.412
			c-4.142,0-7.5,3.357-7.5,7.5s3.358,7.5,7.5,7.5h49.912c6.893,0,12.5-5.607,12.5-12.5v-82c0-6.893-5.607-12.5-12.5-12.5H15V244
			h260.504c6.893,0,12.5-5.607,12.5-12.5v-82c0-6.893-5.607-12.5-12.5-12.5H99c-4.142,0-7.5,3.357-7.5,7.5
			c0,4.143,3.358,7.5,7.5,7.5h174.005v77H16.503v-77h27.996c4.142,0,7.5-3.357,7.5-7.5c0-4.143-3.358-7.5-7.5-7.5H15V7.749
			c0-4.143-3.358-7.5-7.5-7.5S0,3.606,0,7.749v496.503c0,4.143,3.358,7.5,7.5,7.5h497c4.142,0,7.5-3.357,7.5-7.5
			C512,500.108,508.642,496.751,504.5,496.751z"/>
	</g>
</g>
<g>
</g>
<g>
</g>
<g>
</g>
<g>
</g>
<g>
</g>
<g>
</g>
<g>
</g>
<g>
</g>
<g>
</g>
<g>
</g>
<g>
</g>
<g>
</g>
<g>
</g>
<g>
</g>
<g>
</g>
</svg>
