<?xml version="1.0" encoding="iso-8859-1"?>
<!-- Generator: Adobe Illustrator 19.0.0, SVG Export Plug-In . SVG Version: 6.00 Build 0)  -->
<svg version="1.1" id="Capa_1" xmlns="http://www.w3.org/2000/svg" xmlns:xlink="http://www.w3.org/1999/xlink" x="0px" y="0px"
	 viewBox="0 0 512 512" style="enable-background:new 0 0 512 512;" xml:space="preserve">
<g>
	<g>
		<g>
			<path d="M437.02,74.98C388.667,26.629,324.38,0,256,0S123.333,26.629,74.98,74.98C26.629,123.333,0,187.62,0,256
				s26.629,132.667,74.98,181.02C123.333,485.371,187.62,512,256,512c46.813,0,92.617-12.758,132.462-36.893
				c9.447-5.724,12.467-18.022,6.744-27.469c-5.724-9.449-18.021-12.467-27.469-6.744C334.144,461.244,295.505,472,256,472
				c-119.103,0-216-96.897-216-216S136.897,40,256,40s216,96.897,216,216c0,42.589-12.665,84.044-36.626,119.884
				c-6.139,9.182-3.672,21.603,5.51,27.742c9.184,6.141,21.604,3.672,27.742-5.51C497.002,355.674,512,306.53,512,256
				C512,187.62,485.371,123.333,437.02,74.98z"/>
			<path d="M194.3,373.594c3.024,1.635,6.281,2.41,9.493,2.41c7.109,0,13.994-3.801,17.611-10.493l108.108-200
				c5.253-9.718,1.634-21.853-8.083-27.104c-9.719-5.253-21.854-1.633-27.104,8.083l-108.108,200
				C180.964,356.207,184.583,368.342,194.3,373.594z"/>
			<path d="M223,186c0-27.57-22.43-50-50-50s-50,22.43-50,50s22.43,50,50,50S223,213.57,223,186z M173,196c-5.514,0-10-4.486-10-10
				c0-5.514,4.486-10,10-10c5.514,0,10,4.486,10,10C183,191.514,178.514,196,173,196z"/>
			<path d="M338,376c27.57,0,50-22.43,50-50s-22.43-50-50-50s-50,22.43-50,50S310.43,376,338,376z M338,316c5.514,0,10,4.486,10,10
				c0,5.514-4.486,10-10,10c-5.514,0-10-4.486-10-10C328,320.486,332.486,316,338,316z"/>
		</g>
	</g>
</g>
<g>
</g>
<g>
</g>
<g>
</g>
<g>
</g>
<g>
</g>
<g>
</g>
<g>
</g>
<g>
</g>
<g>
</g>
<g>
</g>
<g>
</g>
<g>
</g>
<g>
</g>
<g>
</g>
<g>
</g>
</svg>
