<?xml version="1.0" encoding="iso-8859-1"?>
<!-- Generator: Adobe Illustrator 17.1.0, SVG Export Plug-In . SVG Version: 6.00 Build 0)  -->
<!DOCTYPE svg PUBLIC "-//W3C//DTD SVG 1.1//EN" "http://www.w3.org/Graphics/SVG/1.1/DTD/svg11.dtd">
<svg version="1.1" id="Capa_1" xmlns="http://www.w3.org/2000/svg" xmlns:xlink="http://www.w3.org/1999/xlink" x="0px" y="0px"
	 viewBox="0 0 442 442" style="enable-background:new 0 0 442 442;" xml:space="preserve">
<g>
	<path d="M158.568,40.419c-5.787,0-10.496,4.708-10.496,10.496c0,5.787,4.708,10.495,10.496,10.495s10.495-4.708,10.495-10.495
		C169.063,45.127,164.355,40.419,158.568,40.419z"/>
	<path d="M308.896,0H133.104C111.343,0,93.64,17.704,93.64,39.464v363.071c0,21.761,17.704,39.465,39.464,39.465h175.792
		c21.761,0,39.464-17.704,39.464-39.465V39.464C348.36,17.704,330.657,0,308.896,0z M328.36,402.535
		c0,10.733-8.731,19.465-19.464,19.465H133.104c-10.733,0-19.464-8.732-19.464-19.465V360.17H328.36V402.535z M328.36,340.17H113.64
		V101.829H328.36V340.17z M328.36,81.829H113.64V39.464c0-10.733,8.731-19.464,19.464-19.464h175.792
		c10.733,0,19.464,8.732,19.464,19.464V81.829z"/>
	<path d="M248.835,40.915h-55.67c-5.523,0-10,4.477-10,10s4.477,10,10,10h55.67c5.523,0,10-4.477,10-10
		S254.358,40.915,248.835,40.915z"/>
	<path d="M210.594,401.085h20.812c5.523,0,10-4.477,10-10s-4.477-10-10-10h-20.812c-5.523,0-10,4.477-10,10
		S205.071,401.085,210.594,401.085z"/>
</g>
<g>
</g>
<g>
</g>
<g>
</g>
<g>
</g>
<g>
</g>
<g>
</g>
<g>
</g>
<g>
</g>
<g>
</g>
<g>
</g>
<g>
</g>
<g>
</g>
<g>
</g>
<g>
</g>
<g>
</g>
</svg>
