<svg height="512pt" viewBox="-34 0 512 512.04532" width="512pt" xmlns="http://www.w3.org/2000/svg"><path d="m119.488281 349.910156h-51.199219c-4.710937 0-8.53125 3.820313-8.53125 8.53125v34.132813c0 4.714843 3.820313 8.535156 8.53125 8.535156h51.199219c4.714844 0 8.535157-3.820313 8.535157-8.535156v-34.132813c0-4.710937-3.820313-8.53125-8.535157-8.53125zm-8.53125 34.132813h-34.132812v-17.066407h34.132812zm0 0"/><path d="m119.488281 281.644531h-51.199219c-4.710937 0-8.53125 3.820313-8.53125 8.53125v34.132813c0 4.714844 3.820313 8.535156 8.53125 8.535156h51.199219c4.714844 0 8.535157-3.820312 8.535157-8.535156v-34.132813c0-4.710937-3.820313-8.53125-8.535157-8.53125zm-8.53125 34.132813h-34.132812v-17.066406h34.132812zm0 0"/><path d="m119.488281 213.375h-51.199219c-4.710937 0-8.53125 3.820312-8.53125 8.535156v34.132813c0 4.710937 3.820313 8.53125 8.53125 8.53125h51.199219c4.714844 0 8.535157-3.820313 8.535157-8.53125v-34.132813c0-4.714844-3.820313-8.535156-8.535157-8.535156zm-8.53125 34.132812h-34.132812v-17.066406h34.132812zm0 0"/><path d="m204.824219 349.910156h-51.203125c-4.710938 0-8.53125 3.820313-8.53125 8.53125v34.132813c0 4.714843 3.820312 8.535156 8.53125 8.535156h51.203125c4.710937 0 8.53125-3.820313 8.53125-8.535156v-34.132813c0-4.710937-3.820313-8.53125-8.53125-8.53125zm-8.535157 34.132813h-34.132812v-17.066407h34.132812zm0 0"/><path d="m204.824219 281.644531h-51.203125c-4.710938 0-8.53125 3.820313-8.53125 8.53125v34.132813c0 4.714844 3.820312 8.535156 8.53125 8.535156h51.203125c4.710937 0 8.53125-3.820312 8.53125-8.535156v-34.132813c0-4.710937-3.820313-8.53125-8.53125-8.53125zm-8.535157 34.132813h-34.132812v-17.066406h34.132812zm0 0"/><path d="m204.824219 213.375h-51.203125c-4.710938 0-8.53125 3.820312-8.53125 8.535156v34.132813c0 4.710937 3.820312 8.53125 8.53125 8.53125h51.203125c4.710937 0 8.53125-3.820313 8.53125-8.53125v-34.132813c0-4.714844-3.820313-8.535156-8.53125-8.535156zm-8.535157 34.132812h-34.132812v-17.066406h34.132812zm0 0"/><path d="m119.488281 145.109375h-51.199219c-4.710937 0-8.53125 3.820313-8.53125 8.535156v34.132813c0 4.710937 3.820313 8.53125 8.53125 8.53125h51.199219c4.714844 0 8.535157-3.820313 8.535157-8.53125v-34.132813c0-4.714843-3.820313-8.535156-8.535157-8.535156zm-8.53125 34.132813h-34.132812v-17.066407h34.132812zm0 0"/><path d="m204.824219 136.574219h17.066406c4.710937 0 8.53125-3.820313 8.53125-8.53125 0-4.714844-3.820313-8.535157-8.53125-8.535157h-17.066406c-4.714844 0-8.535157 3.820313-8.535157 8.535157 0 4.710937 3.820313 8.53125 8.535157 8.53125zm0 0"/><path d="m256.023438 136.574219h25.597656c4.714844 0 8.535156-3.820313 8.535156-8.53125 0-4.714844-3.820312-8.535157-8.535156-8.535157h-25.597656c-4.714844 0-8.535157 3.820313-8.535157 8.535157 0 4.710937 3.820313 8.53125 8.535157 8.53125zm0 0"/><path d="m290.15625 162.175781c0-4.710937-3.820312-8.53125-8.535156-8.53125h-102.398438c-4.710937 0-8.535156 3.820313-8.535156 8.53125 0 4.714844 3.824219 8.535157 8.535156 8.535157h102.398438c4.714844 0 8.535156-3.820313 8.535156-8.535157zm0 0"/><path d="m290.15625 196.308594c0-4.710938-3.820312-8.53125-8.535156-8.53125h-25.597656c-4.714844 0-8.535157 3.820312-8.535157 8.53125 0 4.714844 3.820313 8.535156 8.535157 8.535156h25.597656c4.714844 0 8.535156-3.820312 8.535156-8.535156zm0 0"/><path d="m426.6875 448.164062v-47.054687c-.027344-41.976563-27.890625-78.839844-68.265625-90.324219v-12.074218c0-.230469-.066406-.460938-.074219-.691407-.011718-.230469.074219-.238281.074219-.375v-237.867187c0-14.140625-11.460937-25.601563-25.597656-25.601563h-111.789063c-4.035156-19.886719-21.519531-34.175781-41.8125-34.175781-20.292968 0-37.777344 14.289062-41.8125 34.175781h-111.789062c-14.136719 0-25.5976565 11.460938-25.5976565 25.601563v384c0 14.136718 11.4609375 25.597656 25.5976565 25.597656h202.992187c-4.824219 5.214844-7.230469 12.21875-6.621093 19.296875 1.480468 13.441406 12.929687 23.558594 26.453124 23.371094h169.710938c14.109375-.070313 25.53125-11.492188 25.601562-25.601563.011719-6.792968-2.695312-13.3125-7.519531-18.097656-5.714843-5.210938-9.144531-12.460938-9.550781-20.179688zm-85.332031-388.386718v214.945312c-4.109375-1.523437-8.542969-1.953125-12.867188-1.253906-1.429687.25-2.835937.628906-4.199219 1.132812v-197.757812c0-4.714844-3.820312-8.535156-8.53125-8.535156h-51.203124v-17.066406h68.269531c4.710937 0 8.53125 3.820312 8.53125 8.535156zm-102.398438 341.332031v17.066406h-187.734375v-332.800781h44.238282c3.601562 10.191406 13.21875 17.023438 24.027343 17.066406h119.46875c10.808594-.042968 20.425781-6.875 24.027344-17.066406h44.238281v204.800781c.007813 1.199219.273438 2.382813.777344 3.472657-.492188 1.996093-.753906 4.046874-.777344 6.101562v11.035156c-40.324218 11.554688-68.152344 48.375-68.265625 90.324219zm-59.734375-384c10.808594.042969 20.425782 6.875 24.03125 17.066406h-48.0625c3.605469-10.191406 13.222656-17.023437 24.03125-17.066406zm68.265625 34.132813v25.601562c0 4.710938-3.820312 8.53125-8.53125 8.53125h-119.46875c-4.710937 0-8.53125-3.820312-8.53125-8.53125v-25.601562zm-230.398437 392.535156v-384c0-4.714844 3.820312-8.535156 8.53125-8.535156h68.269531v17.066406h-51.203125c-4.710938 0-8.53125 3.820312-8.53125 8.535156v349.867188c0 4.710937 3.820312 8.53125 8.53125 8.53125h196.269531v12.960937c-.039062 1.382813-.199219 2.753906-.480469 4.105469h-212.855468c-4.710938 0-8.53125-3.820313-8.53125-8.53125zm406.980468 48.75c-1.558593 1.585937-3.691406 2.46875-5.914062 2.449218h-169.710938c-4.667968.183594-8.738281-3.140624-9.488281-7.75-.234375-2.621093.761719-5.203124 2.695313-6.988281 8.902344-8.3125 14.082031-19.859375 14.371094-32.035156v-47.09375c.089843-36.464844 25.730468-67.875 61.4375-75.265625 3.976562-.808594 6.828124-4.304688 6.828124-8.359375v-17.734375c-.167968-4.410156 2.757813-8.339844 7.03125-9.445312 2.488282-.445313 5.042969.234374 6.980469 1.859374 1.9375 1.621094 3.058594 4.019532 3.054688 6.546876v18.773437c0 4.054687 2.851562 7.550781 6.828125 8.359375 35.742187 7.332031 61.414062 38.777344 61.4375 75.265625v47.054687c.289062 12.265626 5.519531 23.898438 14.507812 32.253907 1.628906 1.582031 2.550782 3.753906 2.558594 6.023437.007812 2.304688-.941406 4.507813-2.617188 6.085938zm0 0"/><path d="m298.6875 460.84375h-17.066406c-4.710938 0-8.53125 3.820312-8.53125 8.53125 0 4.714844 3.820312 8.535156 8.53125 8.535156h17.066406c4.714844 0 8.535156-3.820312 8.535156-8.535156 0-4.710938-3.820312-8.53125-8.535156-8.53125zm0 0"/><path d="m384.023438 460.84375h-51.199219c-4.714844 0-8.535157 3.820312-8.535157 8.53125 0 4.714844 3.820313 8.535156 8.535157 8.535156h51.199219c4.710937 0 8.53125-3.820312 8.53125-8.535156 0-4.710938-3.820313-8.53125-8.53125-8.53125zm0 0"/></svg>