<?xml version="1.0" encoding="iso-8859-1"?>
<!-- Generator: Adobe Illustrator 19.0.0, SVG Export Plug-In . SVG Version: 6.00 Build 0)  -->
<svg version="1.1" id="Capa_1" xmlns="http://www.w3.org/2000/svg" xmlns:xlink="http://www.w3.org/1999/xlink" x="0px" y="0px"
	 viewBox="0 0 512 512" style="enable-background:new 0 0 512 512;" xml:space="preserve">
<g>
	<g>
		<g>
			<path d="M467.7,92.539L263.1,1.716c-5.179-2.299-11.092-2.289-16.263,0.03L44.232,92.569
				c-7.177,3.218-11.796,10.35-11.796,18.214v157.692c0,59.596,23.551,120.517,64.615,167.142
				c20.655,23.452,44.466,42.01,70.774,55.158C196.004,504.859,225.67,512,256,512c42.469,0,83.803-13.746,119.536-39.751
				c8.914-6.487,10.881-18.972,4.393-27.886c-6.487-8.913-18.972-10.88-27.885-4.393c-28.862,21.005-62.073,32.108-96.043,32.108
				c-96.111,0-183.641-97.044-183.641-203.602V123.71l182.683-81.892l184.599,81.944v144.713c0,36.757-10.559,73.956-30.537,107.572
				c-5.632,9.477-2.515,21.726,6.962,27.358c9.479,5.633,21.726,2.515,27.358-6.962c23.643-39.785,36.139-84.035,36.139-127.967
				V110.783C479.563,102.892,474.914,95.741,467.7,92.539z"/>
			<path d="M344.565,168.972l-98.389,137.432c-2.687,3.116-6.053,3.789-7.858,3.908c-1.855,0.124-5.411-0.112-8.548-3.051
				l-63.588-62.054c-7.89-7.7-20.528-7.546-28.227,0.345c-7.699,7.89-7.545,20.527,0.345,28.227l63.697,62.16
				c0.059,0.058,0.119,0.115,0.179,0.172c9.55,9.091,22.296,14.147,35.411,14.147c1.126,0.001,2.258-0.036,3.387-0.112
				c14.286-0.952,27.623-7.9,36.591-19.061c0.232-0.288,0.456-0.583,0.671-0.884l98.789-137.99
				c6.417-8.964,4.352-21.433-4.611-27.85C363.451,157.943,350.981,160.007,344.565,168.972z"/>
		</g>
	</g>
</g>
<g>
</g>
<g>
</g>
<g>
</g>
<g>
</g>
<g>
</g>
<g>
</g>
<g>
</g>
<g>
</g>
<g>
</g>
<g>
</g>
<g>
</g>
<g>
</g>
<g>
</g>
<g>
</g>
<g>
</g>
</svg>
