<?xml version="1.0" encoding="iso-8859-1"?>
<!-- Generator: Adobe Illustrator 19.0.0, SVG Export Plug-In . SVG Version: 6.00 Build 0)  -->
<svg version="1.1" id="Capa_1" xmlns="http://www.w3.org/2000/svg" xmlns:xlink="http://www.w3.org/1999/xlink" x="0px" y="0px"
	 viewBox="0 0 512.001 512.001" style="enable-background:new 0 0 512.001 512.001;" xml:space="preserve">
<g>
	<g>
		<g>
			<path d="M495.614,153H310.386c-9.035,0-16.386,7.351-16.386,16.386V188h-30V85h28.614C301.649,85,309,77.649,309,68.614V16.386
				C309,7.351,301.649,0,292.614,0H78.386C69.351,0,62,7.351,62,16.386v52.229C62,77.649,69.351,85,78.386,85h44.864
				c4.143,0,7.5-3.358,7.5-7.5c0-4.142-3.357-7.5-7.5-7.5H78.386C77.622,70,77,69.378,77,68.614V16.386
				C77,15.622,77.622,15,78.386,15h214.229c0.764,0,1.386,0.622,1.386,1.386v52.229c0,0.764-0.622,1.386-1.386,1.386H153.25
				c-4.143,0-7.5,3.358-7.5,7.5c0,4.142,3.357,7.5,7.5,7.5H249v224h-30v-18.614c0-9.035-7.351-16.386-16.386-16.386H17.386
				C8.351,274,1,281.351,1,290.386v52.229C1,351.649,8.351,359,17.386,359h185.229c9.035,0,16.386-7.351,16.386-16.386V324h30v103
				h-28.614c-9.035,0-16.386,7.351-16.386,16.386v52.229c0,9.035,7.351,16.386,16.386,16.386h214.229
				c9.035,0,16.386-7.351,16.386-16.386v-52.229c0-9.035-7.351-16.386-16.386-16.386H383.25c-4.143,0-7.5,3.358-7.5,7.5
				c0,4.142,3.357,7.5,7.5,7.5h51.364c0.764,0,1.386,0.622,1.386,1.386v52.229c0,0.764-0.622,1.386-1.386,1.386H220.386
				c-0.764,0-1.386-0.622-1.386-1.386v-52.229c0-0.764,0.622-1.386,1.386-1.386H353.25c4.143,0,7.5-3.358,7.5-7.5
				c0-4.142-3.357-7.5-7.5-7.5H264V203h30v18.614c0,9.035,7.351,16.386,16.386,16.386h185.229c9.035,0,16.386-7.351,16.386-16.386
				v-52.229C512,160.351,504.649,153,495.614,153z M204.001,342.614H204c0,0.764-0.622,1.386-1.386,1.386H17.386
				c-0.764,0-1.386-0.622-1.386-1.386v-52.229c0-0.764,0.622-1.386,1.386-1.386h185.229c0.764,0,1.386,0.622,1.386,1.386V342.614z
				 M497.001,221.614L497.001,221.614C497,222.378,496.378,223,495.614,223H310.386c-0.764,0-1.386-0.622-1.386-1.386v-52.229
				c0-0.764,0.622-1.386,1.386-1.386h185.229c0.764,0,1.386,0.622,1.386,1.386V221.614z"/>
			<path d="M126.67,22.724l-20.59,20.797l-3.192-1.935c-3.545-2.146-8.155-1.015-10.302,2.527
				c-2.146,3.542-1.016,8.154,2.526,10.301l8.25,5c1.205,0.73,2.55,1.086,3.885,1.086c1.952,0,3.884-0.76,5.333-2.224l24.75-25
				c2.914-2.943,2.89-7.692-0.054-10.606C134.334,19.757,129.585,19.78,126.67,22.724z"/>
			<path d="M237.5,50c4.143,0,7.5-3.358,7.5-7.5c0-4.142-3.357-7.5-7.5-7.5h-90c-4.143,0-7.5,3.358-7.5,7.5
				c0,4.142,3.357,7.5,7.5,7.5H237.5z"/>
			<path d="M267.5,50c4.143,0,7.5-3.358,7.5-7.5c0-4.142-3.357-7.5-7.5-7.5h-11c-4.143,0-7.5,3.358-7.5,7.5
				c0,4.142,3.357,7.5,7.5,7.5H267.5z"/>
			<path d="M346.304,176.697c-2.93-2.929-7.678-2.929-10.607,0l-13.5,13.5c-2.929,2.929-2.929,7.678,0,10.606l12,12
				c1.465,1.464,3.385,2.197,5.304,2.197c1.919,0,3.839-0.732,5.304-2.197c2.929-2.929,2.929-7.678,0-10.606l-6.697-6.697
				l8.197-8.197C349.232,184.375,349.232,179.625,346.304,176.697z"/>
			<path d="M390.304,176.697c-2.93-2.929-7.678-2.929-10.607,0c-2.929,2.929-2.929,7.678,0,10.606l8.197,8.197l-6.697,6.697
				c-2.929,2.929-2.929,7.678,0,10.606c1.465,1.464,3.385,2.197,5.304,2.197c1.919,0,3.839-0.732,5.304-2.197l12-12
				c2.929-2.929,2.929-7.678,0-10.606L390.304,176.697z"/>
			<path d="M370.285,175.537c-3.844-1.54-8.211,0.331-9.749,4.178l-10,25c-1.538,3.846,0.333,8.211,4.179,9.749
				c0.913,0.366,1.855,0.539,2.783,0.539c2.976,0,5.793-1.784,6.966-4.716l10-25C376.002,181.439,374.131,177.075,370.285,175.537z"
				/>
			<path d="M480.5,188h-61c-4.143,0-7.5,3.358-7.5,7.5c0,4.142,3.357,7.5,7.5,7.5h61c4.143,0,7.5-3.358,7.5-7.5
				C488,191.358,484.643,188,480.5,188z"/>
			<path d="M63.67,298.724l-20.59,20.797l-3.192-1.935c-3.545-2.147-8.155-1.016-10.302,2.527
				c-2.147,3.543-1.016,8.154,2.526,10.301l8.25,5c1.205,0.73,2.55,1.086,3.885,1.086c1.952,0,3.884-0.76,5.333-2.224l24.75-25
				c2.914-2.943,2.89-7.692-0.054-10.606C71.334,295.757,66.585,295.779,63.67,298.724z"/>
			<path d="M184.5,309h-99c-4.143,0-7.5,3.358-7.5,7.5c0,4.142,3.357,7.5,7.5,7.5h99c4.143,0,7.5-3.358,7.5-7.5
				C192,312.358,188.643,309,184.5,309z"/>
			<path d="M230,469.5c0,11.304,9.196,20.5,20.5,20.5s20.5-9.196,20.5-20.5c0-11.304-9.196-20.5-20.5-20.5
				C239.196,449,230,458.196,230,469.5z M256,469.5c0,3.033-2.467,5.5-5.5,5.5s-5.5-2.467-5.5-5.5c0-3.033,2.467-5.5,5.5-5.5
				S256,466.467,256,469.5z"/>
			<path d="M278,469.5c0,11.304,9.196,20.5,20.5,20.5c11.304,0,20.5-9.196,20.5-20.5c0-11.304-9.196-20.5-20.5-20.5
				C287.196,449,278,458.196,278,469.5z M304,469.5c0,3.033-2.467,5.5-5.5,5.5c-3.033,0-5.5-2.467-5.5-5.5
				c0-3.033,2.467-5.5,5.5-5.5C301.533,464,304,466.467,304,469.5z"/>
			<path d="M347.5,462h-14c-4.143,0-7.5,3.358-7.5,7.5c0,4.142,3.357,7.5,7.5,7.5h14c4.143,0,7.5-3.358,7.5-7.5
				C355,465.358,351.643,462,347.5,462z"/>
			<path d="M368.5,477h49c4.143,0,7.5-3.358,7.5-7.5c0-4.142-3.357-7.5-7.5-7.5h-49c-4.143,0-7.5,3.358-7.5,7.5
				C361,473.642,364.357,477,368.5,477z"/>
			<path d="M16.171,177h38.658C63.746,177,71,169.746,71,160.83v-38.66c0-8.917-7.254-16.17-16.171-16.17H16.171
				C7.254,106,0,113.254,0,122.17v38.659C0,169.746,7.254,177,16.171,177z M15,122.17c0-0.646,0.525-1.17,1.171-1.17h38.658
				c0.646,0,1.171,0.525,1.171,1.17v38.659c0,0.646-0.525,1.17-1.171,1.17H16.171c-0.646,0-1.171-0.525-1.171-1.17V122.17z"/>
			<path d="M98,109.5c0,4.142,3.357,7.5,7.5,7.5h114c4.143,0,7.5-3.358,7.5-7.5c0-4.142-3.357-7.5-7.5-7.5h-114
				C101.357,102,98,105.358,98,109.5z"/>
			<path d="M105.5,149h114c4.143,0,7.5-3.358,7.5-7.5c0-4.142-3.357-7.5-7.5-7.5h-114c-4.143,0-7.5,3.358-7.5,7.5
				C98,145.642,101.357,149,105.5,149z"/>
			<path d="M105.5,181h27c4.143,0,7.5-3.358,7.5-7.5c0-4.142-3.357-7.5-7.5-7.5h-27c-4.143,0-7.5,3.358-7.5,7.5
				C98,177.642,101.357,181,105.5,181z"/>
			<path d="M219.5,166h-61c-4.143,0-7.5,3.358-7.5,7.5c0,4.142,3.357,7.5,7.5,7.5h61c4.143,0,7.5-3.358,7.5-7.5
				C227,169.358,223.643,166,219.5,166z"/>
			<path d="M301.171,281c-8.917,0-16.171,7.254-16.171,16.17v38.659c0,8.917,7.254,16.17,16.171,16.17h38.658
				c8.917,0,16.171-7.254,16.171-16.17V297.17c0-8.917-7.254-16.17-16.171-16.17H301.171z M341,297.17v38.659
				c0,0.646-0.525,1.17-1.171,1.17h-38.658c-0.646,0-1.171-0.525-1.171-1.17V297.17c0-0.646,0.525-1.17,1.171-1.17h38.658
				C340.475,296,341,296.525,341,297.17z"/>
			<path d="M504.5,277h-114c-4.143,0-7.5,3.358-7.5,7.5c0,4.142,3.357,7.5,7.5,7.5h114c4.143,0,7.5-3.358,7.5-7.5
				C512,280.358,508.643,277,504.5,277z"/>
			<path d="M504.5,309h-114c-4.143,0-7.5,3.358-7.5,7.5c0,4.142,3.357,7.5,7.5,7.5h114c4.143,0,7.5-3.358,7.5-7.5
				C512,312.358,508.643,309,504.5,309z"/>
			<path d="M390.5,341c-4.143,0-7.5,3.358-7.5,7.5c0,4.142,3.357,7.5,7.5,7.5h27c4.143,0,7.5-3.358,7.5-7.5
				c0-4.142-3.357-7.5-7.5-7.5H390.5z"/>
			<path d="M504.5,341h-61c-4.143,0-7.5,3.358-7.5,7.5c0,4.142,3.357,7.5,7.5,7.5h61c4.143,0,7.5-3.358,7.5-7.5
				C512,344.358,508.643,341,504.5,341z"/>
		</g>
	</g>
</g>
<g>
</g>
<g>
</g>
<g>
</g>
<g>
</g>
<g>
</g>
<g>
</g>
<g>
</g>
<g>
</g>
<g>
</g>
<g>
</g>
<g>
</g>
<g>
</g>
<g>
</g>
<g>
</g>
<g>
</g>
</svg>
