<?xml version="1.0" encoding="iso-8859-1"?>
<!-- Generator: Adobe Illustrator 17.1.0, SVG Export Plug-In . SVG Version: 6.00 Build 0)  -->
<!DOCTYPE svg PUBLIC "-//W3C//DTD SVG 1.1//EN" "http://www.w3.org/Graphics/SVG/1.1/DTD/svg11.dtd">
<svg version="1.1" id="Capa_1" xmlns="http://www.w3.org/2000/svg" xmlns:xlink="http://www.w3.org/1999/xlink" x="0px" y="0px"
	 viewBox="0 0 442 442" style="enable-background:new 0 0 442 442;" xml:space="preserve">
<g>
	<path d="M441.064,206.397l-33.445-71.776c-1.642-3.523-5.177-5.776-9.064-5.776h-92.681c-5.522,0-10,4.477-10,10s4.478,10,10,10
		h86.308L422,212.836v99.561h-10.753c-4.838-31.941-32.477-56.5-65.747-56.5s-60.909,24.559-65.747,56.5H162.247
		c-1.075-7.097-3.289-13.82-6.427-20h120.055c5.522,0,10-4.477,10-10V63.103c0-5.523-4.478-10-10-10H10c-5.522,0-10,4.477-10,10
		v219.295c0,5.523,4.478,10,10,10h27.181c-3.138,6.18-5.353,12.903-6.427,20H10c-5.522,0-10,4.477-10,10s4.478,10,10,10h20.753
		c4.838,31.941,32.477,56.5,65.747,56.5s60.909-24.559,65.747-56.5h117.506c4.838,31.941,32.477,56.5,65.747,56.5
		s60.909-24.559,65.747-56.5H432c5.522,0,10-4.477,10-10V210.621C442,209.162,441.681,207.72,441.064,206.397z M20,73.103h245.874
		v199.295H140.271c-11.706-10.26-27.019-16.5-43.771-16.5s-32.065,6.24-43.771,16.5H20V73.103z M96.5,368.897
		c-25.641,0-46.5-20.86-46.5-46.5s20.859-46.5,46.5-46.5s46.5,20.86,46.5,46.5S122.141,368.897,96.5,368.897z M345.5,368.897
		c-25.641,0-46.5-20.86-46.5-46.5s20.859-46.5,46.5-46.5c25.636,0,46.493,20.853,46.5,46.487c0,0.004-0.001,0.009-0.001,0.013
		S392,322.406,392,322.41C391.993,348.045,371.136,368.897,345.5,368.897z"/>
	<path d="M392.506,220.621c0.006,0,0.013,0,0.02,0c5.523,0,10-4.477,10-10c0-1.735-0.441-3.367-1.219-4.79l-17.18-36.87
		c-1.642-3.523-5.177-5.776-9.064-5.776h-64.848c-5.522,0-10,4.477-10,10v37.436c0,5.523,4.478,10,10,10H392.506z M320.215,183.186
		h48.475l8.125,17.436h-56.6V183.186z"/>
</g>
<g>
</g>
<g>
</g>
<g>
</g>
<g>
</g>
<g>
</g>
<g>
</g>
<g>
</g>
<g>
</g>
<g>
</g>
<g>
</g>
<g>
</g>
<g>
</g>
<g>
</g>
<g>
</g>
<g>
</g>
</svg>
