<?xml version="1.0" encoding="iso-8859-1"?>
<!-- Generator: Adobe Illustrator 19.0.0, SVG Export Plug-In . SVG Version: 6.00 Build 0)  -->
<svg version="1.1" id="Capa_1" xmlns="http://www.w3.org/2000/svg" xmlns:xlink="http://www.w3.org/1999/xlink" x="0px" y="0px"
	 viewBox="0 0 490 490" style="enable-background:new 0 0 490 490;" xml:space="preserve">
<g>
	<path d="M244.98,4.566L0,120.496v74.813h33.326v290.125h20.417V195.309h382.508v290.125h20.417V195.309H490v-75.785L244.98,4.566z
		 M469.583,174.892H20.417v-41.466l224.603-106.29l224.564,105.358V174.892z"/>
	<path d="M233.64,277.674h-93.41v92.139h93.41V277.674z M213.223,349.397h-52.577v-51.306h52.577V349.397z"/>
	<path d="M349.765,277.674h-93.41v92.139h93.41V277.674z M329.348,349.397h-52.577v-51.306h52.577V349.397z"/>
	<path d="M83.242,479.836h93.415v-92.144H83.242V479.836z M103.658,408.109h52.582v51.311h-52.582V408.109z"/>
	<path d="M198.29,479.836h93.415v-92.144H198.29V479.836z M218.706,408.109h52.582v51.311h-52.582V408.109z"/>
	<path d="M313.343,479.836h93.41v-92.144h-93.41V479.836z M333.759,408.109h52.577v51.311h-52.577V408.109z"/>
	<rect x="90.349" y="131.448" width="48.654" height="20.417"/>
	<rect x="220.67" y="131.448" width="48.654" height="20.417"/>
	<rect x="350.991" y="131.448" width="48.654" height="20.417"/>
</g>
<g>
</g>
<g>
</g>
<g>
</g>
<g>
</g>
<g>
</g>
<g>
</g>
<g>
</g>
<g>
</g>
<g>
</g>
<g>
</g>
<g>
</g>
<g>
</g>
<g>
</g>
<g>
</g>
<g>
</g>
</svg>
