<svg height="512pt" viewBox="-67 0 512 512.001" width="512pt" xmlns="http://www.w3.org/2000/svg"><path d="m54.066406 496h-16.660156c-6.640625 0-12.789062-2.96875-16.871094-8.144531-4.007812-5.078125-5.445312-11.585938-3.949218-17.855469l23.710937-99.15625c5.996094-16.417969 20.898437-44.199219 54.042969-49.21875 4.367187-.660156 7.375-4.738281 6.710937-9.105469-.660156-4.367187-4.738281-7.378906-9.105469-6.710937-30.851562 4.667968-54.589843 25.988281-66.847656 60.023437-.101562.277344-.1875.5625-.253906.851563l-23.816406 99.597656c-2.648438 11.0625-.113282 22.539062 6.945312 31.488281 7.136719 9.042969 17.867188 14.230469 29.433594 14.230469h16.660156c4.417969 0 8-3.582031 8-8s-3.578125-8-8-8zm0 0"/><path d="m376.855469 466.28125-23.816407-99.597656c-.039062-.160156-.082031-.3125-.125-.46875-8.988281-29.570313-38.007812-61.402344-80.480468-61.402344h-32.089844v-34.476562c6.648438-4.066407 12.8125-8.992188 18.421875-14.761719 15.507813-15.953125 26.8125-38.320313 32.875-64.957031 10.390625-3.421876 18.753906-17.097657 20.605469-35.144532.953125-9.332031-.050782-18.425781-2.835938-25.605468-3.007812-7.761719-8.0625-12.9375-14.101562-14.582032-8.160156-71.324218-48.445313-115.285156-106.367188-115.285156s-98.207031 43.960938-106.367187 115.289062c-6.042969 1.640626-11.09375 6.816407-14.105469 14.578126-2.78125 7.183593-3.789062 16.277343-2.832031 25.609374 1.847656 18.039063 10.203125 31.714844 20.601562 35.140626 6.0625 26.636718 17.367188 49.007812 32.878907 64.960937 5.65625 5.820313 11.886718 10.785156 18.601562 14.871094v34.367187h-9.566406c-4.417969 0-8 3.582032-8 8 0 4.417969 3.582031 8 8 8h13.484375c11.316406 14.535156 28.703125 23.101563 47.339843 23.121094h.0625c18.65625 0 36.074219-8.570312 47.402344-23.121094h35.992188c34.214844 0 57.695312 25.785156 65.101562 49.832032l23.757813 99.355468c1.5 6.265625.0625 12.773438-3.945313 17.855469-4.085937 5.171875-10.234375 8.140625-16.875 8.140625h-251.40625c-4.417968 0-8 3.582031-8 8s3.582032 8 8 8h251.40625c11.570313 0 22.296875-5.1875 29.433594-14.230469 7.0625-8.949219 9.59375-20.425781 6.949219-31.488281zm-276.132813-284.511719c-.742187-3.816406-4.089844-6.464843-7.84375-6.464843-.5 0-1.007812.046874-1.515625.144531-1.484375.136719-8.253906-6.429688-9.808593-21.605469-.695313-6.765625-.023438-13.394531 1.835937-18.191406 1.507813-3.886719 3.136719-4.898438 3.375-4.921875.007813 0 .105469.007812.28125.070312 2.347656.871094 4.964844.59375 7.078125-.753906 2.113281-1.34375 3.472656-3.601563 3.675781-6.097656 2.601563-31.914063 11.992188-58.796875 27.15625-77.730469 16.054688-20.054688 37.582031-30.21875 63.984375-30.21875 26.398438 0 47.925782 10.164062 63.984375 30.214844 15.164063 18.9375 24.554688 45.816406 27.15625 77.734375.203125 2.496093 1.5625 4.75 3.671875 6.097656 2.113282 1.34375 4.730469 1.625 7.082032.753906.164062-.0625.253906-.070312.277343-.070312h.003907c.238281.023437 1.867187 1.03125 3.375 4.921875 1.859374 4.796875 2.527343 11.425781 1.835937 18.191406-1.539063 15-8.167969 21.601562-9.753906 21.601562-.019531 0-.039063 0-.054688 0-4.332031-.835937-8.519531 1.996094-9.359375 6.324219-10.707031 54.960938-42.863281 86.484375-88.21875 86.484375-45.355468 0-77.511718-31.523437-88.21875-86.484375zm88.320313 146.167969h-.050781c-14.195313-.015625-26.921876-6.433594-35.269532-17.675781v-32.097657c10.890625 4.019532 22.710938 6.089844 35.21875 6.089844 12.578125 0 24.460938-2.09375 35.402344-6.15625v32.179688c-8.363281 11.25-21.097656 17.660156-35.300781 17.660156zm0 0"/><path d="m204.964844 226.191406c4.042968 1.414063 8.414062 2.117188 13.097656 2.117188 7.683594 0 16.203125-1.898438 25.472656-5.679688 10.515625-4.292968 18.21875-9.546875 18.542969-9.769531 2.613281-1.792969 3.917969-4.957031 3.332031-8.074219-.582031-3.113281-2.953125-5.589844-6.039062-6.3125-.195313-.042968-19.914063-4.800781-31.546875-19.6875-8.320313-10.648437-16.53125-11.871094-21.945313-11.015625-7.226562 1.136719-12.828125 6.394531-16.847656 11.960938-4.019531-5.566407-9.617188-10.824219-16.847656-11.960938-5.417969-.851562-13.625.367188-21.945313 11.015625-11.527343 14.75-31.371093 19.644532-31.546875 19.6875-3.085937.722656-5.453125 3.199219-6.039062 6.3125-.585938 3.117188.722656 6.28125 3.335937 8.074219.320313.222656 8.023438 5.476563 18.542969 9.769531 9.269531 3.785156 17.785156 5.679688 25.46875 5.679688 4.683594 0 9.054688-.707032 13.097656-2.117188 6.414063-2.238281 11.738282-6.136718 15.933594-11.636718 4.195312 5.5 9.519531 9.398437 15.933594 11.636718zm3.402344-42.617187c1.617187-.257813 4.175781 1.640625 6.851562 5.0625 6.871094 8.796875 15.691406 14.804687 23.347656 18.765625-9 3.796875-19.929687 6.617187-28.328125 3.683594-5.714843-1.996094-9.878906-6.625-12.671875-14.109376 2.652344-5.898437 7.355469-12.859374 10.800782-13.402343zm-40.519532 27.503906c-8.351562 2.929687-19.296875.109375-28.320312-3.691406 7.648437-3.957031 16.457031-9.964844 23.320312-18.75 2.675782-3.421875 5.234375-5.304688 6.847656-5.0625 3.277344.511719 7.957032 7.023437 10.808594 13.398437-2.792968 7.476563-6.949218 12.105469-12.65625 14.105469zm0 0"/><path d="m250.296875 490.222656c23.941406 0 43.417969-19.476562 43.417969-43.414062v-30.054688c0-9.015625-7.332032-16.347656-16.347656-16.347656h-67.671876c-9.011718 0-16.34375 7.332031-16.34375 16.347656v30.054688c0 23.9375 19.476563 43.414062 43.414063 43.414062zm-40.945313-43.414062v-2.609375h16.679688c4.417969 0 8-3.582031 8-8s-3.582031-8-8-8h-16.679688v-11.445313c0-.191406.15625-.347656.34375-.347656h67.671876c.191406 0 .347656.15625.347656.347656v11.445313h-16.683594c-4.417969 0-8 3.582031-8 8s3.582031 8 8 8h16.683594v2.609375c0 15.113281-12.300782 27.414062-27.417969 27.414062h-13.53125c-15.117187 0-27.414063-12.300781-27.414063-27.414062zm0 0"/></svg>