<?xml version="1.0" encoding="iso-8859-1"?>
<!-- Generator: Adobe Illustrator 19.0.0, SVG Export Plug-In . SVG Version: 6.00 Build 0)  -->
<svg version="1.1" id="Capa_1" xmlns="http://www.w3.org/2000/svg" xmlns:xlink="http://www.w3.org/1999/xlink" x="0px" y="0px"
	 viewBox="0 0 394.8 394.8" style="enable-background:new 0 0 394.8 394.8;" xml:space="preserve">
<g>
	<g>
		<g>
			<path d="M345.6,78.8l-0.4-0.4V78l-76-76l-0.4-0.4c0,0-0.4,0-0.4-0.4c0,0-0.4,0-0.4-0.4C266.8,0,265.6,0,264,0H75.6
				c-7.2,0-14,2.8-18.8,7.6L56.4,8c-4.8,4.8-8,12-8,19.2v340.4c0,7.6,3.2,14.4,8,19.2c4.8,4.8,12,8,19.2,8h243.6
				c7.6,0,14.4-3.2,19.2-8s8-12,8-19.2V82.8C346.4,81.2,346,80,345.6,78.8z M271.6,28.8l22.8,22.8L316.8,74h-33.2
				c-3.2,0-6.4-1.2-8.4-3.6c-2-2-3.6-5.2-3.6-8.4V28.8z M329.2,367.6c0,2.8-1.2,5.2-3.2,7.2s-4.4,3.2-7.2,3.2H75.6
				c-2.8,0-5.2-1.2-7.2-2.8c-2-2-2.8-4.4-2.8-7.2V26.8c0-2.8,1.2-5.2,3.2-7.2l0.4-0.4c2-1.6,4.4-2.8,6.8-2.8h179.2v45.2
				c0,8,3.2,15.2,8.8,20.8c5.2,5.2,12.8,8.8,20.8,8.8h44.4V367.6z"/>
			<path d="M268.4,167.2c-2-2-4.4-3.2-7.6-4c-2.8-0.8-7.2-1.2-12.4-1.2H230c-3.2,0-5.6,0.8-6.8,2c-1.6,1.2-2,3.6-2,6.8v54.4
				c0,2.8,0.8,4.8,2,6.4c1.2,1.6,3.2,2,5.2,2s3.6-0.8,5.2-2.4c1.2-1.6,2-3.6,2-6.4v-20h13.2c8.8,0,15.2-2,19.6-5.6
				c4.4-3.6,6.8-9.2,6.8-16.4c0-3.2-0.4-6.4-1.6-9.2C272,171.2,270.4,169.2,268.4,167.2z M258.4,189.6c-1.2,1.6-2.8,2.8-5.2,3.6
				c-2.4,0.8-5.2,1.2-8.4,1.2h-9.6v-21.6h9.6c6.4,0,10.4,1.2,12.8,3.2c2,2,2.8,4.4,2.8,7.6C260.4,186,259.6,188,258.4,189.6z"/>
			<path d="M198,160.8c-2,0-3.6,0.8-5.2,2c-1.2,1.6-2,3.6-2,6.4v55.6c0,2.8,0.8,5.2,2,6.4c1.2,1.6,3.2,2,5.2,2s4-0.8,5.2-2
				c1.2-1.6,2-3.6,2-6.4v-55.2c0-2.8-0.8-5.2-2-6.4C201.6,161.6,200,160.8,198,160.8z"/>
			<path d="M174.8,221.6h-37.2l34-40.4c2.8-3.2,4.4-5.2,5.2-6.8c0.8-1.2,1.2-3.2,1.2-5.6c0-4.8-2.4-7.2-7.6-7.2h-40
				c-2,0-4,0.4-4.8,1.6c-1.2,1.2-1.6,2.4-1.6,4c0,1.6,0.4,2.8,1.6,4c1.2,0.8,2.8,1.6,4.8,1.6h30.8l-36,43.2c-0.4,0.8-1.2,1.6-2,2.4
				s-1.2,1.6-2,2.4c-0.4,0.4-0.8,1.2-1.2,2c-0.4,0.8-0.4,1.6-0.4,2.4c0,2.4,0.8,4,2.4,5.6c1.6,1.2,4,2,7.2,2h45.6c2,0,4-0.4,4.8-1.6
				c1.2-0.8,1.6-2.4,1.6-4c0-1.6-0.4-2.8-1.6-4S176.8,221.6,174.8,221.6z"/>
		</g>
	</g>
</g>
<g>
</g>
<g>
</g>
<g>
</g>
<g>
</g>
<g>
</g>
<g>
</g>
<g>
</g>
<g>
</g>
<g>
</g>
<g>
</g>
<g>
</g>
<g>
</g>
<g>
</g>
<g>
</g>
<g>
</g>
</svg>
